<svg xmlns="http://www.w3.org/2000/svg" xmlns:xlink="http://www.w3.org/1999/xlink" xmlns:lucid="lucid" width="777" height="913"><g transform="translate(2448 1097)" lucid:page-tab-id="0_0"><path d="M-2500-1500H0V0h-2500z" fill="#fff"/><path d="M-2020-1040c0 11.05-8.95 20-20 20s-20-8.95-20-20 8.95-20 20-20 20 8.95 20 20z" stroke="#282c33"/><path d="M-2220.24-981.63h.98l-60.1 21.9-.33-.9 59.46-21.65zm159.43-57.75l-101.72 37.07v-.67h-.98l102.37-37.3z" stroke="#3a414a" stroke-width=".05" fill="#3a414a"/><path d="M-2060.5-1040.02l.02.52-.34.12-.32-.9.7-.25z" fill="#3a414a"/><path stroke="#3a414a" stroke-width=".05" fill="#3a414a"/><path d="M-2279.36-959.73l-.48.18-.32-.9.48-.17z" stroke="#3a414a" stroke-width=".05" fill="#3a414a"/><use xlink:href="#a" transform="matrix(1,0,0,1,-2220.2442070281386,-1002.9655701416435) translate(0 14.222222222222223)"/><path d="M-1800.3-960.62l-.33.9-64.66-23.57h1v-.64zm-120.75-44h-.98v.65l-97.16-35.4.33-.9z" stroke="#3a414a" stroke-width=".05" fill="#3a414a"/><path d="M-2018.86-1040.27l-.32.9-.38-.15.06-.46-.02-.53z" fill="#3a414a"/><path stroke="#3a414a" stroke-width=".05" fill="#3a414a"/><path d="M-1799.84-960.45l-.32.9-.48-.18.32-.9z" stroke="#3a414a" stroke-width=".05" fill="#3a414a"/><use xlink:href="#b" transform="matrix(1,0,0,1,-1922.0326181076284,-1004.6233146650932) translate(0 14.222222222222223)"/><path d="M-2119.3-960l-.68-.7 21.48-21.13h1.35zm65.3-64.3l-21.47 21.14h-1.36l22.17-21.82z" stroke="#3a414a" stroke-width=".05" fill="#3a414a"/><path d="M-2053.97-1025l.4.3-.44.4-.67-.67.4-.4z" fill="#3a414a"/><path stroke="#3a414a" stroke-width=".05" fill="#3a414a"/><path d="M-2119.3-960.02l-.37.36-.66-.68.36-.36z" stroke="#3a414a" stroke-width=".05" fill="#3a414a"/><use xlink:href="#c" transform="matrix(1,0,0,1,-2115.850874469877,-1003.1640095121439) translate(0 14.222222222222223)"/><path d="M-1960-960.7l-.7.68-21.95-22.42h1.33zm-42.22-43.07h-1.33l-21.3-21.75.68-.66z" stroke="#3a414a" stroke-width=".05" fill="#3a414a"/><path d="M-2024.16-1026.17l-.68.66-.35-.36.2-.17.42-.57z" fill="#3a414a"/><path stroke="#3a414a" stroke-width=".05" fill="#3a414a"/><path d="M-1959.66-960.33l-.68.66-.36-.36.68-.67z" stroke="#3a414a" stroke-width=".05" fill="#3a414a"/><use xlink:href="#d" transform="matrix(1,0,0,1,-2021.2959773069488,-1003.7708249470362) translate(0 14.222222222222223)"/><path d="M-2279.53-336.88h-.94v-52.23h.94zm0-73.56h-.94v-42.62h.94zm0-63.95h-.94v-27.95h.94zm0-49.28h-.94v-75.93h.94zm0-97.26h-.94v-64.12h.94zm0-85.46h-.94v-12.76h.94zm0-34.1h-.94v-59.4h.94zm0-80.74h-.94v-62.1h.94zm0-83.43h-.94v-12.76h.94zm0-34.1h-.94v-20.73h.94zM-2279.53-959.5h-.94v-.5h.94z" stroke="#3a414a" stroke-width=".05" fill="#3a414a"/><path d="M-2280-322.12l-4.64-14.26h9.28z" fill="#3a414a"/><path d="M-2280-320.58l-5.3-16.28h10.6zm-3.98-15.33l3.98 12.25 3.98-12.26z" stroke="#3a414a" stroke-width=".05" fill="#3a414a"/><use xlink:href="#e" transform="matrix(1,0,0,1,-2347.2345679012346,-938.7624864424473) translate(0 14.222222222222223)"/><use xlink:href="#f" transform="matrix(1,0,0,1,-2347.2345679012346,-938.7624864424473) translate(16.790123456790127 14.222222222222223)"/><use xlink:href="#g" transform="matrix(1,0,0,1,-2347.2345679012346,-938.7624864424473) translate(32.09876543209877 14.222222222222223)"/><use xlink:href="#h" transform="matrix(1,0,0,1,-2347.5308641975307,-904.6709156326477) translate(0 14.222222222222223)"/><use xlink:href="#i" transform="matrix(1,0,0,1,-2347.4814814814813,-821.2362818086641) translate(0 14.222222222222223)"/><use xlink:href="#j" transform="matrix(1,0,0,1,-2347.4814814814813,-821.2362818086641) translate(73.82716049382717 14.222222222222223)"/><use xlink:href="#i" transform="matrix(1,0,0,1,-2351.9506172839506,-740.4930877854542) translate(0 14.222222222222223)"/><use xlink:href="#k" transform="matrix(1,0,0,1,-2351.9506172839506,-740.4930877854542) translate(73.82716049382717 14.222222222222223)"/><use xlink:href="#l" transform="matrix(1,0,0,1,-2340.1234567901233,-706.3971394282843) translate(0 14.222222222222223)"/><use xlink:href="#m" transform="matrix(1,0,0,1,-2307.604938271605,-620.9400528721868) translate(0 14.222222222222223)"/><use xlink:href="#n" transform="matrix(1,0,0,1,-2369.2098765432097,-410.4379386644617) translate(0 14.222222222222223)"/><use xlink:href="#o" transform="matrix(1,0,0,1,-2369.2098765432097,-410.4379386644617) translate(56.14814814814816 14.222222222222223)"/><use xlink:href="#p" transform="matrix(1,0,0,1,-2367.679012345679,-523.6827469407693) translate(0 14.222222222222223)"/><use xlink:href="#q" transform="matrix(1,0,0,1,-2401.259259259259,-474.3879480440237) translate(0 14.222222222222223)"/><path d="M-2119.53-336.88h-.94v-384.07h.94zm0-405.4h-.94v-58.52h.94zm0-79.85h-.94V-959.5h.94zM-2119.53-959.5h-.94v-.5h.94z" stroke="#3a414a" stroke-width=".05" fill="#3a414a"/><path d="M-2120-322.12l-4.64-14.26h9.28z" fill="#3a414a"/><path d="M-2120-320.58l-5.3-16.28h10.6zm-3.98-15.33l3.98 12.25 3.98-12.26z" stroke="#3a414a" stroke-width=".05" fill="#3a414a"/><use xlink:href="#i" transform="matrix(1,0,0,1,-2187.4814814814813,-822.1334351903704) translate(0 14.222222222222223)"/><use xlink:href="#j" transform="matrix(1,0,0,1,-2187.4814814814813,-822.1334351903704) translate(73.82716049382717 14.222222222222223)"/><use xlink:href="#i" transform="matrix(1,0,0,1,-2191.9506172839506,-742.2873914128776) translate(0 14.222222222222223)"/><use xlink:href="#k" transform="matrix(1,0,0,1,-2191.9506172839506,-742.2873914128776) translate(73.82716049382717 14.222222222222223)"/><path d="M-1959.53-336.88h-.94v-385.87h.94zm0-407.2h-.94v-58.5h.94zm0-79.85h-.94V-959.5h.94zM-1959.53-959.5h-.94v-.5h.94z" stroke="#3a414a" stroke-width=".05" fill="#3a414a"/><path d="M-1960-322.12l-4.63-14.26h9.27z" fill="#3a414a"/><path d="M-1960-320.58l-5.3-16.28h10.6zm-3.98-15.33l3.98 12.25 3.98-12.26z" stroke="#3a414a" stroke-width=".05" fill="#3a414a"/><use xlink:href="#i" transform="matrix(1,0,0,1,-2027.4814814814815,-823.9277350084936) translate(0 14.222222222222223)"/><use xlink:href="#j" transform="matrix(1,0,0,1,-2027.4814814814815,-823.9277350084936) translate(73.82716049382717 14.222222222222223)"/><use xlink:href="#i" transform="matrix(1,0,0,1,-2031.9506172839506,-744.08169487646) translate(0 14.222222222222223)"/><use xlink:href="#k" transform="matrix(1,0,0,1,-2031.9506172839506,-744.08169487646) translate(73.82716049382717 14.222222222222223)"/><path d="M-1799.53-336.88h-.94v-386.77h.94zm0-408.1h-.94v-58.5h.94zm0-79.85h-.94V-959.5h.94zM-1799.53-959.5h-.94v-.5h.94z" stroke="#3a414a" stroke-width=".05" fill="#3a414a"/><path d="M-1800-322.12l-4.63-14.26h9.27z" fill="#3a414a"/><path d="M-1800-320.58l-5.3-16.28h10.6zm-3.98-15.33l3.98 12.25 3.98-12.26z" stroke="#3a414a" stroke-width=".05" fill="#3a414a"/><use xlink:href="#i" transform="matrix(1,0,0,1,-1867.4814814814815,-824.8248881853989) translate(0 14.222222222222223)"/><use xlink:href="#j" transform="matrix(1,0,0,1,-1867.4814814814815,-824.8248881853989) translate(73.82716049382717 14.222222222222223)"/><use xlink:href="#i" transform="matrix(1,0,0,1,-1871.9506172839508,-744.9788516988243) translate(0 14.222222222222223)"/><use xlink:href="#k" transform="matrix(1,0,0,1,-1871.9506172839508,-744.9788516988243) translate(73.82716049382717 14.222222222222223)"/><path d="M-2279.5-880.43l158.62 39.14M-2279.5-880.42l-.5-.13M-2135.4-855.17l14.43 13.86-19.2 5.55M-2279.5-882.28l318.6 41.1M-2279.5-882.28l-.5-.06M-1976.9-853.33l15.9 12.13-18.45 7.7M-2279.5-881.4l478.6 42.04M-2279.5-881.4l-.5-.04M-1817.38-850.84l16.38 11.47-18.13 8.45" stroke="#3a414a" fill="none"/><path d="M-2280.5-880.52l-11.7.7-9.05 1.67-6.6 2.08-4.77 2.2-3.44 2.13-2.46 2-1.78 1.82-1.26 1.7-.9 1.55-.6 1.46-.4 1.37-.18 1.33-.04 1.3.14 1.3.3 1.3.48 1.32.7 1.4 1 1.45 1.4 1.57 1.9 1.7 2.66 1.8 3.78 1.96 5.45 2 8.02 1.85 12.03 1.25 4.9.1" stroke="#3a414a" stroke-linejoin="round" fill="none"/><path d="M-2280.5-880.52l.5-.03M-2298.1-850.58l17.1 10.38-17.54 9.62" stroke="#3a414a" fill="none"/><path d="M-2280.5-798.88l-12.2.74-9.24 1.75-6.63 2.16-4.7 2.22-3.35 2.12-2.36 1.97-1.67 1.8-1.18 1.63-.82 1.52-.54 1.4-.32 1.35-.15 1.3.02 1.25.17 1.26.35 1.3.55 1.3.8 1.4 1.12 1.5 1.57 1.6 2.22 1.73 3.14 1.9 4.57 2.02 6.77 2 10.27 1.67 11.22.52" stroke="#3a414a" stroke-linejoin="round" fill="none"/><path d="M-2280.5-798.88l.5-.03M-2297.82-770.3l16.82 10.82-17.78 9.16" stroke="#3a414a" fill="none"/><path d="M-2120.5-797.98l-13.22.83-9.65 1.9-6.67 2.28-4.55 2.26-3.1 2.1-2.13 1.9-1.47 1.7-1 1.53-.68 1.4-.42 1.33-.23 1.25-.05 1.23.1 1.2.28 1.22.47 1.26.7 1.33 1 1.43 1.47 1.55 2.1 1.72 3.1 1.9 4.63 2.06 7.16 2.1 11.33 1.7 10.43.45" stroke="#3a414a" stroke-linejoin="round" fill="none"/><path d="M-2120.5-797.98l.5-.03M-2137.88-771.1l16.88 10.73-17.73 9.26" stroke="#3a414a" fill="none"/><path d="M-1960.5-797.98l-13.22.83-9.65 1.9-6.67 2.28-4.55 2.26-3.1 2.1-2.13 1.9-1.47 1.7-1 1.53-.68 1.4-.42 1.33-.23 1.25-.05 1.23.1 1.2.28 1.22.46 1.26.7 1.33 1.02 1.43 1.46 1.55 2.1 1.72 3.1 1.9 4.63 2.06 7.16 2.1 11.33 1.7 10.43.45" stroke="#3a414a" stroke-linejoin="round" fill="none"/><path d="M-1960.5-797.98l.5-.03M-1977.88-771.1l16.88 10.73-17.73 9.26" stroke="#3a414a" fill="none"/><path d="M-1800.5-800.67l-10.83.6-8.63 1.54-6.5 1.97-4.84 2.12-3.6 2.12-2.66 2.02-1.97 1.9-1.44 1.77-1.05 1.66-.74 1.55-.5 1.47-.3 1.4-.12 1.38.04 1.35.2 1.35.38 1.36.57 1.38.8 1.45 1.1 1.52 1.48 1.6 2 1.73 2.73 1.82 3.77 1.92 5.26 1.93 7.48 1.77 10.83 1.24 6.16.18" stroke="#3a414a" stroke-linejoin="round" fill="none"/><path d="M-1800.5-800.67l.5-.03M-1818.03-769.05l17.03 10.5-17.6 9.5M-2120.5-678.5l-158.62 37.74M-2120.5-678.5l.5-.1M-2259.86-635.07l-19.17-5.72 14.54-13.72M-1960.5-679.5l-318.6 39.78M-1960.5-679.5l.5-.06" stroke="#3a414a" fill="none"/><path d="M-2260.58-631.95l-18.43-7.78 15.94-12.07M-1800.5-679.96l-478.6 40.28M-1800.5-679.96l.5-.04" stroke="#3a414a" fill="none"/><path d="M-2260.9-631.17l-18.1-8.52 16.42-11.4" stroke="#3a414a" fill="none"/><path d="M-2280.5-679.53l-13 .8-9.57 1.9-6.66 2.23-4.6 2.26-3.15 2.1-2.18 1.92-1.5 1.72-1.05 1.56-.7 1.44-.46 1.33-.25 1.27-.08 1.23.1 1.22.24 1.22.44 1.27.66 1.32.97 1.4 1.38 1.55 1.98 1.7 2.86 1.85 4.25 2.02 6.46 2.1 10.08 1.83 13.35.74" stroke="#3a414a" stroke-linejoin="round" fill="none"/><path d="M-2280.5-679.53l.5-.03M-2297.74-652.5l16.74 10.94-17.85 9.02" stroke="#3a414a" fill="none"/><path d="M-2320-550.6l6.54 3.22 6.82 2.67 6.88 2.04 6.78 1.43 6.6.83 5.9.24-.04.95-5.94-.26-6.68-.83-6.86-1.44-6.95-2.07-6.9-2.7-6.62-3.26-2.92-1.74h1.86zm-16.07-46.95l-1.07.3-2.16.83-1.73.83-1.4.84-1.16.8-.96.82-.82.8-.7.82-.58.82-.5.83-.43.85-.33.88-.28.93-.22.97-.14 1.05-.05 1.13.04 1.23.17 1.37.32 1.52.5 1.7.76 1.95 1.08 2.22.73 1.22h-1.12l-.45-.76-1.12-2.3-.77-2-.53-1.8-.33-1.6-.18-1.44-.06-1.3.05-1.23.14-1.12.22-1.05.3-1 .4-.96.44-.93.55-.9.63-.88.75-.88.87-.86 1.03-.86 1.22-.86 1.48-.87 1.8-.86 2.23-.84 1.1-.32z" stroke="#3a414a" stroke-width=".05" fill="#3a414a"/><path d="M-2279.98-540.14l-.04.95h-.5l.03-.96z" stroke="#3a414a" stroke-width=".05" fill="#3a414a"/><path d="M-2321.6-599.8l-13.6 6.34-1.13-9.2z" fill="#3a414a"/><path d="M-2320.08-600l-15.5 7.25-1.3-10.5zm-14.73 5.84l11.67-5.45-12.65-2.47z" stroke="#3a414a" stroke-width=".05" fill="#3a414a"/><use xlink:href="#r" transform="matrix(1,0,0,1,-2391.5844294880553,-572.837760112853) translate(0 14.222222222222223)"/><path d="M-2120.24-542.3l-.42.85-47.4-23.04h2.18zm-89.52-43.53h-2.17l-13.54-6.58.4-.86z" stroke="#3a414a" stroke-width=".05" fill="#3a414a"/><path d="M-2119.8-542.1l-.4.87-.47-.23.42-.85z" stroke="#3a414a" stroke-width=".05" fill="#3a414a"/><path d="M-2223.7-597.22l-4.04 8.33-10.8-10.4z" fill="#3a414a"/><path d="M-2222.97-597.6l-4.63 9.5-12.33-11.87zm-4.9 7.92l3.47-7.16-12.76-1.78z" stroke="#3a414a" stroke-width=".05" fill="#3a414a"/><use xlink:href="#r" transform="matrix(1,0,0,1,-2243.5992894714827,-585.827565415902) translate(0 14.222222222222223)"/><path d="M-1960.4-540.57l-.2.93-46.36-9.94h4.53zm-141.58-30.34h-4.54l-27.7-5.95v-.97zm-69.6-14.93h-4.55l-47.95-10.27.2-.93z" stroke="#3a414a" stroke-width=".05" fill="#3a414a"/><path d="M-1959.9-540.46l-.2.92-.5-.1.2-.93z" stroke="#3a414a" stroke-width=".05" fill="#3a414a"/><path d="M-2225.44-592.14l-12.98-7.52 14.92-1.54z" fill="#3a414a"/><path d="M-2225.1-591.4l-14.82-8.58 17.02-1.76zm-11.82-7.94l11.15 6.46 1.67-7.78z" stroke="#3a414a" stroke-width=".05" fill="#3a414a"/><use xlink:href="#r" transform="matrix(1,0,0,1,-2109.1629027401386,-570.910569105691) translate(0 14.222222222222223)"/><path d="M-1800.43-540.54l-.13.94-12.13-1.65v-.96zm-121.64-16.6v.97l-77.7-10.6v-.95zm-101.1-13.77h-7.02l-104.02-14.2v-.73h-5.36l-84.25-11.5.13-.93z" stroke="#3a414a" stroke-width=".05" fill="#3a414a"/><path d="M-1799.94-540.47l-.12.94-.5-.07.12-.94z" stroke="#3a414a" stroke-width=".05" fill="#3a414a"/><path d="M-2224.9-593.26l-13.5-6.52 14.76-2.67z" fill="#3a414a"/><path d="M-2224.5-592.55l-15.42-7.44 16.84-3.03zm-12.37-7.02l11.6 5.6 1.08-7.9z" stroke="#3a414a" stroke-width=".05" fill="#3a414a"/><g><use xlink:href="#r" transform="matrix(1,0,0,1,-1922.0747251646508,-559.8553076402975) translate(0 14.222222222222223)"/></g><path d="M-2320-314a6 6 0 0 1 6-6h548a6 6 0 0 1 6 6v8a6 6 0 0 1-6 6h-548a6 6 0 0 1-6-6z" stroke="#282c33"/><path d="M-2020-240c0 11.05-8.95 20-20 20s-20-8.95-20-20 8.95-20 20-20 20 8.95 20 20z" stroke="#282c33" fill="#fff"/><path d="M-2028-240c0 6.63-5.37 12-12 12s-12-5.37-12-12 5.37-12 12-12 12 5.37 12 12z" stroke="#282c33"/><path d="M-2040-299v37.6" stroke="#3a414a" fill="none"/><path d="M-2039.53-299h-.94v-.5h.94z" stroke="#3a414a" stroke-width=".05" fill="#3a414a"/><path d="M-2030-278.82l-10 17.32-10-17.32" stroke="#3a414a" fill="none"/><defs><path fill="#333" d="M135-150c-39-12-60 13-60 57V0H25l-1-190h47c2 13-1 29 3 40 6-28 27-53 61-41v41" id="s"/><path fill="#333" d="M133-34C117-15 103 5 69 4 32 3 11-16 11-54c-1-60 55-63 116-61 1-26-3-47-28-47-18 1-26 9-28 27l-52-2c7-38 36-58 82-57s74 22 75 68l1 82c-1 14 12 18 25 15v27c-30 8-71 5-69-32zm-48 3c29 0 43-24 42-57-32 0-66-3-65 30 0 17 8 27 23 27" id="t"/><path fill="#333" d="M135-194c87-1 58 113 63 194h-50c-7-57 23-157-34-157-59 0-34 97-39 157H25l-1-190h47c2 12-1 28 3 38 12-26 28-41 61-42" id="u"/><path fill="#333" d="M147 0L96-86 75-71V0H25v-261h50v150l67-79h53l-66 74L201 0h-54" id="v"/><path fill="#333" d="M15-148v-39h180v39H15zm0 97v-39h180v39H15" id="w"/><path fill="#333" d="M101-251c68 0 84 54 84 127C185-50 166 4 99 4S15-52 14-124c-1-75 17-127 87-127zm-1 216c37-5 36-46 36-89s4-89-36-89c-39 0-36 45-36 89 0 43-3 85 36 89" id="x"/><g id="a"><use transform="matrix(0.04938271604938272,0,0,0.04938271604938272,0,0)" xlink:href="#s"/><use transform="matrix(0.04938271604938272,0,0,0.04938271604938272,6.913580246913581,0)" xlink:href="#t"/><use transform="matrix(0.04938271604938272,0,0,0.04938271604938272,16.790123456790127,0)" xlink:href="#u"/><use transform="matrix(0.04938271604938272,0,0,0.04938271604938272,27.604938271604947,0)" xlink:href="#v"/><use transform="matrix(0.04938271604938272,0,0,0.04938271604938272,37.48148148148149,0)" xlink:href="#w"/><use transform="matrix(0.04938271604938272,0,0,0.04938271604938272,47.85185185185186,0)" xlink:href="#x"/></g><path fill="#333" d="M128-127c34 4 56 21 59 58 7 91-148 94-172 28-4-9-6-17-7-26l51-5c1 24 16 35 40 36 23 0 39-12 38-36-1-31-31-36-65-34v-40c32 2 59-3 59-33 0-20-13-33-34-33s-33 13-35 32l-50-3c6-44 37-68 86-68 50 0 83 20 83 66 0 35-22 52-53 58" id="y"/><g id="b"><use transform="matrix(0.04938271604938272,0,0,0.04938271604938272,0,0)" xlink:href="#s"/><use transform="matrix(0.04938271604938272,0,0,0.04938271604938272,6.913580246913581,0)" xlink:href="#t"/><use transform="matrix(0.04938271604938272,0,0,0.04938271604938272,16.790123456790127,0)" xlink:href="#u"/><use transform="matrix(0.04938271604938272,0,0,0.04938271604938272,27.604938271604947,0)" xlink:href="#v"/><use transform="matrix(0.04938271604938272,0,0,0.04938271604938272,37.48148148148149,0)" xlink:href="#w"/><use transform="matrix(0.04938271604938272,0,0,0.04938271604938272,47.85185185185186,0)" xlink:href="#y"/></g><path fill="#333" d="M23 0v-37h61v-169l-59 37v-38l62-41h46v211h57V0H23" id="z"/><g id="c"><use transform="matrix(0.04938271604938272,0,0,0.04938271604938272,0,0)" xlink:href="#s"/><use transform="matrix(0.04938271604938272,0,0,0.04938271604938272,6.913580246913581,0)" xlink:href="#t"/><use transform="matrix(0.04938271604938272,0,0,0.04938271604938272,16.790123456790127,0)" xlink:href="#u"/><use transform="matrix(0.04938271604938272,0,0,0.04938271604938272,27.604938271604947,0)" xlink:href="#v"/><use transform="matrix(0.04938271604938272,0,0,0.04938271604938272,37.48148148148149,0)" xlink:href="#w"/><use transform="matrix(0.04938271604938272,0,0,0.04938271604938272,47.85185185185186,0)" xlink:href="#z"/></g><path fill="#333" d="M182-182c0 78-84 86-111 141h115V0H12c-6-101 99-100 120-180 1-22-12-31-33-32-23 0-32 14-35 34l-49-3c5-45 32-70 84-70 51 0 83 22 83 69" id="A"/><g id="d"><use transform="matrix(0.04938271604938272,0,0,0.04938271604938272,0,0)" xlink:href="#s"/><use transform="matrix(0.04938271604938272,0,0,0.04938271604938272,6.913580246913581,0)" xlink:href="#t"/><use transform="matrix(0.04938271604938272,0,0,0.04938271604938272,16.790123456790127,0)" xlink:href="#u"/><use transform="matrix(0.04938271604938272,0,0,0.04938271604938272,27.604938271604947,0)" xlink:href="#v"/><use transform="matrix(0.04938271604938272,0,0,0.04938271604938272,37.48148148148149,0)" xlink:href="#w"/><use transform="matrix(0.04938271604938272,0,0,0.04938271604938272,47.85185185185186,0)" xlink:href="#A"/></g><path fill="#333" d="M169-182c-1-43-94-46-97-3 18 66 151 10 154 114 3 95-165 93-204 36-6-8-10-19-12-30l50-8c3 46 112 56 116 5-17-69-150-10-154-114-4-87 153-88 188-35 5 8 8 18 10 28" id="B"/><use transform="matrix(0.04938271604938272,0,0,0.04938271604938272,0,0)" xlink:href="#B" id="e"/><use transform="matrix(0.04938271604938272,0,0,0.04938271604938272,0,0)" xlink:href="#w" id="f"/><path fill="#333" d="M185-48c-13 30-37 53-82 52C43 2 14-33 14-96s30-98 90-98c62 0 83 45 84 108H66c0 31 8 55 39 56 18 0 30-7 34-22zm-45-69c5-46-57-63-70-21-2 6-4 13-4 21h74" id="C"/><path fill="#333" d="M88-194c31-1 46 15 58 34l-1-101h50l1 261h-48c-2-10 0-23-3-31C134-8 116 4 84 4 32 4 16-41 15-95c0-56 19-97 73-99zm17 164c33 0 40-30 41-66 1-37-9-64-41-64s-38 30-39 65c0 43 13 65 39 65" id="D"/><path fill="#333" d="M-4 44V30h207v14H-4" id="E"/><path fill="#333" d="M25-224v-37h50v37H25zM25 0v-190h50V0H25" id="F"/><path fill="#333" d="M135-194c53 0 70 44 70 98 0 56-19 98-73 100-31 1-45-17-59-34 3 33 2 69 2 105H25l-1-265h48c2 10 0 23 3 31 11-24 29-35 60-35zM114-30c33 0 39-31 40-66 0-38-9-64-40-64-56 0-55 130 0 130" id="G"/><path fill="#333" d="M85 4C-2 5 27-109 22-190h50c7 57-23 150 33 157 60-5 35-97 40-157h50l1 190h-47c-2-12 1-28-3-38-12 25-28 42-61 42" id="H"/><path fill="#333" d="M115-3C79 11 28 4 28-45v-112H4v-33h27l15-45h31v45h36v33H77v99c-1 23 16 31 38 25v30" id="I"/><path fill="#333" d="M67-93c0 74 22 123 53 168H70C40 30 18-18 18-93s22-123 52-168h50c-32 44-53 94-53 168" id="J"/><path fill="#333" d="M102-93c0 74-22 123-52 168H0C30 29 54-18 53-93c0-74-22-123-53-168h50c30 45 52 94 52 168" id="K"/><g id="g"><use transform="matrix(0.04938271604938272,0,0,0.04938271604938272,0,0)" xlink:href="#s"/><use transform="matrix(0.04938271604938272,0,0,0.04938271604938272,6.913580246913581,0)" xlink:href="#C"/><use transform="matrix(0.04938271604938272,0,0,0.04938271604938272,16.790123456790127,0)" xlink:href="#t"/><use transform="matrix(0.04938271604938272,0,0,0.04938271604938272,26.666666666666668,0)" xlink:href="#D"/><use transform="matrix(0.04938271604938272,0,0,0.04938271604938272,37.48148148148149,0)" xlink:href="#E"/><use transform="matrix(0.04938271604938272,0,0,0.04938271604938272,47.35802469135803,0)" xlink:href="#F"/><use transform="matrix(0.04938271604938272,0,0,0.04938271604938272,52.2962962962963,0)" xlink:href="#u"/><use transform="matrix(0.04938271604938272,0,0,0.04938271604938272,63.111111111111114,0)" xlink:href="#G"/><use transform="matrix(0.04938271604938272,0,0,0.04938271604938272,73.92592592592594,0)" xlink:href="#H"/><use transform="matrix(0.04938271604938272,0,0,0.04938271604938272,84.74074074074075,0)" xlink:href="#I"/><use transform="matrix(0.04938271604938272,0,0,0.04938271604938272,90.61728395061729,0)" xlink:href="#J"/><use transform="matrix(0.04938271604938272,0,0,0.04938271604938272,96.49382716049384,0)" xlink:href="#K"/></g><path fill="#333" d="M230 0l2-204L168 0h-37L68-204 70 0H24v-248h70l56 185 57-185h69V0h-46" id="L"/><path fill="#333" d="M24-248c93 1 206-16 204 79-1 75-69 88-152 82V0H24v-248zm52 121c47 0 100 7 100-41 0-47-54-39-100-39v80" id="M"/><path fill="#333" d="M24 0v-248h52V0H24" id="N"/><path fill="#333" d="M190-63c-7 42-38 67-86 67-59 0-84-38-90-98-12-110 154-137 174-36l-49 2c-2-19-15-32-35-32-30 0-35 28-38 64-6 74 65 87 74 30" id="O"/><path fill="#333" d="M128 0H69L1-190h53L99-40l48-150h52" id="P"/><g id="h"><use transform="matrix(0.04938271604938272,0,0,0.04938271604938272,0,0)" xlink:href="#L"/><use transform="matrix(0.04938271604938272,0,0,0.04938271604938272,14.765432098765434,0)" xlink:href="#M"/><use transform="matrix(0.04938271604938272,0,0,0.04938271604938272,26.617283950617285,0)" xlink:href="#N"/><use transform="matrix(0.04938271604938272,0,0,0.04938271604938272,31.555555555555557,0)" xlink:href="#E"/><use transform="matrix(0.04938271604938272,0,0,0.04938271604938272,41.4320987654321,0)" xlink:href="#B"/><use transform="matrix(0.04938271604938272,0,0,0.04938271604938272,53.283950617283956,0)" xlink:href="#O"/><use transform="matrix(0.04938271604938272,0,0,0.04938271604938272,63.1604938271605,0)" xlink:href="#t"/><use transform="matrix(0.04938271604938272,0,0,0.04938271604938272,73.03703703703704,0)" xlink:href="#I"/><use transform="matrix(0.04938271604938272,0,0,0.04938271604938272,78.91358024691358,0)" xlink:href="#I"/><use transform="matrix(0.04938271604938272,0,0,0.04938271604938272,84.79012345679013,0)" xlink:href="#C"/><use transform="matrix(0.04938271604938272,0,0,0.04938271604938272,94.66666666666667,0)" xlink:href="#s"/><use transform="matrix(0.04938271604938272,0,0,0.04938271604938272,101.58024691358025,0)" xlink:href="#P"/><use transform="matrix(0.04938271604938272,0,0,0.04938271604938272,111.4567901234568,0)" xlink:href="#J"/><use transform="matrix(0.04938271604938272,0,0,0.04938271604938272,117.33333333333334,0)" xlink:href="#B"/><use transform="matrix(0.04938271604938272,0,0,0.04938271604938272,129.1851851851852,0)" xlink:href="#K"/></g><path fill="#333" d="M110-194c64 0 96 36 96 99 0 64-35 99-97 99-61 0-95-36-95-99 0-62 34-99 96-99zm-1 164c35 0 45-28 45-65 0-40-10-65-43-65-34 0-45 26-45 65 0 36 10 65 43 65" id="Q"/><path fill="#333" d="M137-138c1-29-70-34-71-4 15 46 118 7 119 86 1 83-164 76-172 9l43-7c4 19 20 25 44 25 33 8 57-30 24-41C81-84 22-81 20-136c-2-80 154-74 161-7" id="R"/><g id="i"><use transform="matrix(0.04938271604938272,0,0,0.04938271604938272,0,0)" xlink:href="#G"/><use transform="matrix(0.04938271604938272,0,0,0.04938271604938272,10.814814814814815,0)" xlink:href="#Q"/><use transform="matrix(0.04938271604938272,0,0,0.04938271604938272,21.62962962962963,0)" xlink:href="#F"/><use transform="matrix(0.04938271604938272,0,0,0.04938271604938272,26.567901234567902,0)" xlink:href="#u"/><use transform="matrix(0.04938271604938272,0,0,0.04938271604938272,37.382716049382715,0)" xlink:href="#I"/><use transform="matrix(0.04938271604938272,0,0,0.04938271604938272,43.25925925925926,0)" xlink:href="#R"/><use transform="matrix(0.04938271604938272,0,0,0.04938271604938272,53.135802469135804,0)" xlink:href="#E"/><use transform="matrix(0.04938271604938272,0,0,0.04938271604938272,63.01234567901235,0)" xlink:href="#I"/></g><path fill="#333" d="M25 0v-261h50V0H25" id="S"/><g id="j"><use transform="matrix(0.04938271604938272,0,0,0.04938271604938272,0,0)" xlink:href="#S"/><use transform="matrix(0.04938271604938272,0,0,0.04938271604938272,4.938271604938272,0)" xlink:href="#Q"/><use transform="matrix(0.04938271604938272,0,0,0.04938271604938272,15.753086419753087,0)" xlink:href="#O"/><use transform="matrix(0.04938271604938272,0,0,0.04938271604938272,25.629629629629633,0)" xlink:href="#t"/><use transform="matrix(0.04938271604938272,0,0,0.04938271604938272,35.50617283950618,0)" xlink:href="#S"/><use transform="matrix(0.04938271604938272,0,0,0.04938271604938272,40.44444444444445,0)" xlink:href="#E"/><use transform="matrix(0.04938271604938272,0,0,0.04938271604938272,50.320987654320994,0)" xlink:href="#G"/></g><g id="k"><use transform="matrix(0.04938271604938272,0,0,0.04938271604938272,0,0)" xlink:href="#S"/><use transform="matrix(0.04938271604938272,0,0,0.04938271604938272,4.938271604938272,0)" xlink:href="#Q"/><use transform="matrix(0.04938271604938272,0,0,0.04938271604938272,15.753086419753087,0)" xlink:href="#O"/><use transform="matrix(0.04938271604938272,0,0,0.04938271604938272,25.629629629629633,0)" xlink:href="#t"/><use transform="matrix(0.04938271604938272,0,0,0.04938271604938272,35.50617283950618,0)" xlink:href="#S"/><use transform="matrix(0.04938271604938272,0,0,0.04938271604938272,40.44444444444445,0)" xlink:href="#E"/><use transform="matrix(0.04938271604938272,0,0,0.04938271604938272,50.320987654320994,0)" xlink:href="#R"/><use transform="matrix(0.04938271604938272,0,0,0.04938271604938272,60.19753086419754,0)" xlink:href="#v"/></g><path fill="#333" d="M67-125c0 54 23 88 75 88 28 0 53-7 68-21v-34h-60v-39h108v91C232-14 192 4 140 4 58 4 20-42 15-125 8-236 126-280 215-234c19 10 29 26 37 47l-47 15c-11-23-29-39-63-39-53 1-75 33-75 86" id="T"/><path fill="#333" d="M114-157C55-157 80-60 75 0H25v-261h50l-1 109c12-26 28-41 61-42 86-1 58 113 63 194h-50c-7-57 23-157-34-157" id="U"/><g id="l"><use transform="matrix(0.04938271604938272,0,0,0.04938271604938272,0,0)" xlink:href="#L"/><use transform="matrix(0.04938271604938272,0,0,0.04938271604938272,14.765432098765434,0)" xlink:href="#M"/><use transform="matrix(0.04938271604938272,0,0,0.04938271604938272,26.617283950617285,0)" xlink:href="#N"/><use transform="matrix(0.04938271604938272,0,0,0.04938271604938272,31.555555555555557,0)" xlink:href="#E"/><use transform="matrix(0.04938271604938272,0,0,0.04938271604938272,41.4320987654321,0)" xlink:href="#T"/><use transform="matrix(0.04938271604938272,0,0,0.04938271604938272,55.25925925925927,0)" xlink:href="#t"/><use transform="matrix(0.04938271604938272,0,0,0.04938271604938272,65.13580246913581,0)" xlink:href="#I"/><use transform="matrix(0.04938271604938272,0,0,0.04938271604938272,71.01234567901236,0)" xlink:href="#U"/><use transform="matrix(0.04938271604938272,0,0,0.04938271604938272,81.82716049382717,0)" xlink:href="#C"/><use transform="matrix(0.04938271604938272,0,0,0.04938271604938272,91.70370370370371,0)" xlink:href="#s"/><use transform="matrix(0.04938271604938272,0,0,0.04938271604938272,98.61728395061729,0)" xlink:href="#P"/><use transform="matrix(0.04938271604938272,0,0,0.04938271604938272,108.49382716049384,0)" xlink:href="#J"/><use transform="matrix(0.04938271604938272,0,0,0.04938271604938272,114.37037037037038,0)" xlink:href="#K"/></g><path fill="#333" d="M121-226c-27-7-43 5-38 36h38v33H83V0H34v-157H6v-33h28c-9-59 32-81 87-68v32" id="V"/><g id="m"><use transform="matrix(0.04938271604938272,0,0,0.04938271604938272,0,0)" xlink:href="#B"/><use transform="matrix(0.04938271604938272,0,0,0.04938271604938272,11.851851851851853,0)" xlink:href="#E"/><use transform="matrix(0.04938271604938272,0,0,0.04938271604938272,21.7283950617284,0)" xlink:href="#V"/><use transform="matrix(0.04938271604938272,0,0,0.04938271604938272,27.604938271604947,0)" xlink:href="#F"/><use transform="matrix(0.04938271604938272,0,0,0.04938271604938272,32.543209876543216,0)" xlink:href="#s"/><use transform="matrix(0.04938271604938272,0,0,0.04938271604938272,39.4567901234568,0)" xlink:href="#R"/><use transform="matrix(0.04938271604938272,0,0,0.04938271604938272,49.33333333333334,0)" xlink:href="#I"/></g><g id="n"><use transform="matrix(0.04938271604938272,0,0,0.04938271604938272,0,0)" xlink:href="#s"/><use transform="matrix(0.04938271604938272,0,0,0.04938271604938272,6.913580246913581,0)" xlink:href="#C"/><use transform="matrix(0.04938271604938272,0,0,0.04938271604938272,16.790123456790127,0)" xlink:href="#I"/><use transform="matrix(0.04938271604938272,0,0,0.04938271604938272,22.66666666666667,0)" xlink:href="#H"/><use transform="matrix(0.04938271604938272,0,0,0.04938271604938272,33.48148148148149,0)" xlink:href="#s"/><use transform="matrix(0.04938271604938272,0,0,0.04938271604938272,40.39506172839507,0)" xlink:href="#u"/></g><path fill="#333" d="M195-6C206 82 75 100 31 46c-4-6-6-13-8-21l49-6c3 16 16 24 34 25 40 0 42-37 40-79-11 22-30 35-61 35-53 0-70-43-70-97 0-56 18-96 73-97 30 0 46 14 59 34l2-30h47zm-90-29c32 0 41-27 41-63 0-35-9-62-40-62-32 0-39 29-40 63 0 36 9 62 39 62" id="W"/><path fill="#333" d="M135-194c52 0 70 43 70 98 0 56-19 99-73 100-30 1-46-15-58-35L72 0H24l1-261h50v104c11-23 29-37 60-37zM114-30c31 0 40-27 40-66 0-37-7-63-39-63s-41 28-41 65c0 36 8 64 40 64" id="X"/><path fill="#333" d="M123 10C108 53 80 86 19 72V37c35 8 53-11 59-39L3-190h52l48 148c12-52 28-100 44-148h51" id="Y"/><g id="o"><use transform="matrix(0.04938271604938272,0,0,0.04938271604938272,0,0)" xlink:href="#W"/><use transform="matrix(0.04938271604938272,0,0,0.04938271604938272,10.814814814814815,0)" xlink:href="#S"/><use transform="matrix(0.04938271604938272,0,0,0.04938271604938272,15.753086419753087,0)" xlink:href="#Q"/><use transform="matrix(0.04938271604938272,0,0,0.04938271604938272,26.567901234567902,0)" xlink:href="#X"/><use transform="matrix(0.04938271604938272,0,0,0.04938271604938272,37.382716049382715,0)" xlink:href="#t"/><use transform="matrix(0.04938271604938272,0,0,0.04938271604938272,47.25925925925926,0)" xlink:href="#S"/><use transform="matrix(0.04938271604938272,0,0,0.04938271604938272,52.19753086419754,0)" xlink:href="#E"/><use transform="matrix(0.04938271604938272,0,0,0.04938271604938272,62.074074074074076,0)" xlink:href="#R"/><use transform="matrix(0.04938271604938272,0,0,0.04938271604938272,71.95061728395062,0)" xlink:href="#v"/><use transform="matrix(0.04938271604938272,0,0,0.04938271604938272,81.82716049382717,0)" xlink:href="#Y"/><use transform="matrix(0.04938271604938272,0,0,0.04938271604938272,91.70370370370371,0)" xlink:href="#S"/><use transform="matrix(0.04938271604938272,0,0,0.04938271604938272,96.64197530864197,0)" xlink:href="#F"/><use transform="matrix(0.04938271604938272,0,0,0.04938271604938272,101.58024691358025,0)" xlink:href="#u"/><use transform="matrix(0.04938271604938272,0,0,0.04938271604938272,112.39506172839508,0)" xlink:href="#C"/></g><path fill="#333" d="M240-174c0 40-23 61-54 70L253 0h-59l-57-94H76V0H24v-248c93 4 217-23 216 74zM76-134c48-2 112 12 112-38 0-48-66-32-112-35v73" id="Z"/><path fill="#333" d="M220-157c-53 9-28 100-34 157h-49v-107c1-27-5-49-29-50C55-147 81-57 75 0H25l-1-190h47c2 12-1 28 3 38 10-53 101-56 108 0 13-22 24-43 59-42 82 1 51 116 57 194h-49v-107c-1-25-5-48-29-50" id="aa"/><g id="p"><use transform="matrix(0.04938271604938272,0,0,0.04938271604938272,0,0)" xlink:href="#L"/><use transform="matrix(0.04938271604938272,0,0,0.04938271604938272,14.765432098765434,0)" xlink:href="#M"/><use transform="matrix(0.04938271604938272,0,0,0.04938271604938272,26.617283950617285,0)" xlink:href="#N"/><use transform="matrix(0.04938271604938272,0,0,0.04938271604938272,31.555555555555557,0)" xlink:href="#E"/><use transform="matrix(0.04938271604938272,0,0,0.04938271604938272,41.4320987654321,0)" xlink:href="#Z"/><use transform="matrix(0.04938271604938272,0,0,0.04938271604938272,54.22222222222223,0)" xlink:href="#C"/><use transform="matrix(0.04938271604938272,0,0,0.04938271604938272,64.09876543209877,0)" xlink:href="#D"/><use transform="matrix(0.04938271604938272,0,0,0.04938271604938272,74.91358024691358,0)" xlink:href="#H"/><use transform="matrix(0.04938271604938272,0,0,0.04938271604938272,85.72839506172839,0)" xlink:href="#O"/><use transform="matrix(0.04938271604938272,0,0,0.04938271604938272,95.60493827160494,0)" xlink:href="#C"/><use transform="matrix(0.04938271604938272,0,0,0.04938271604938272,105.4814814814815,0)" xlink:href="#J"/><use transform="matrix(0.04938271604938272,0,0,0.04938271604938272,111.35802469135804,0)" xlink:href="#u"/><use transform="matrix(0.04938271604938272,0,0,0.04938271604938272,122.17283950617282,0)" xlink:href="#H"/><use transform="matrix(0.04938271604938272,0,0,0.04938271604938272,132.98765432098764,0)" xlink:href="#aa"/><use transform="matrix(0.04938271604938272,0,0,0.04938271604938272,148.79012345679013,0)" xlink:href="#E"/><use transform="matrix(0.04938271604938272,0,0,0.04938271604938272,158.66666666666669,0)" xlink:href="#G"/><use transform="matrix(0.04938271604938272,0,0,0.04938271604938272,169.4814814814815,0)" xlink:href="#K"/></g><g id="q"><use transform="matrix(0.04938271604938272,0,0,0.04938271604938272,0,0)" xlink:href="#L"/><use transform="matrix(0.04938271604938272,0,0,0.04938271604938272,14.765432098765434,0)" xlink:href="#M"/><use transform="matrix(0.04938271604938272,0,0,0.04938271604938272,26.617283950617285,0)" xlink:href="#N"/><use transform="matrix(0.04938271604938272,0,0,0.04938271604938272,31.555555555555557,0)" xlink:href="#E"/><use transform="matrix(0.04938271604938272,0,0,0.04938271604938272,41.4320987654321,0)" xlink:href="#T"/><use transform="matrix(0.04938271604938272,0,0,0.04938271604938272,55.25925925925927,0)" xlink:href="#t"/><use transform="matrix(0.04938271604938272,0,0,0.04938271604938272,65.13580246913581,0)" xlink:href="#I"/><use transform="matrix(0.04938271604938272,0,0,0.04938271604938272,71.01234567901236,0)" xlink:href="#U"/><use transform="matrix(0.04938271604938272,0,0,0.04938271604938272,81.82716049382717,0)" xlink:href="#C"/><use transform="matrix(0.04938271604938272,0,0,0.04938271604938272,91.70370370370371,0)" xlink:href="#s"/><use transform="matrix(0.04938271604938272,0,0,0.04938271604938272,98.61728395061729,0)" xlink:href="#P"/><use transform="matrix(0.04938271604938272,0,0,0.04938271604938272,108.49382716049384,0)" xlink:href="#J"/><use transform="matrix(0.04938271604938272,0,0,0.04938271604938272,114.37037037037038,0)" xlink:href="#W"/><use transform="matrix(0.04938271604938272,0,0,0.04938271604938272,125.18518518518519,0)" xlink:href="#S"/><use transform="matrix(0.04938271604938272,0,0,0.04938271604938272,130.12345679012347,0)" xlink:href="#Q"/><use transform="matrix(0.04938271604938272,0,0,0.04938271604938272,140.93827160493828,0)" xlink:href="#X"/><use transform="matrix(0.04938271604938272,0,0,0.04938271604938272,151.7530864197531,0)" xlink:href="#t"/><use transform="matrix(0.04938271604938272,0,0,0.04938271604938272,161.62962962962962,0)" xlink:href="#S"/><use transform="matrix(0.04938271604938272,0,0,0.04938271604938272,166.5679012345679,0)" xlink:href="#E"/><use transform="matrix(0.04938271604938272,0,0,0.04938271604938272,176.44444444444446,0)" xlink:href="#R"/><use transform="matrix(0.04938271604938272,0,0,0.04938271604938272,186.32098765432102,0)" xlink:href="#v"/><use transform="matrix(0.04938271604938272,0,0,0.04938271604938272,196.19753086419757,0)" xlink:href="#Y"/><use transform="matrix(0.04938271604938272,0,0,0.04938271604938272,206.07407407407413,0)" xlink:href="#S"/><use transform="matrix(0.04938271604938272,0,0,0.04938271604938272,211.0123456790124,0)" xlink:href="#F"/><use transform="matrix(0.04938271604938272,0,0,0.04938271604938272,215.9506172839507,0)" xlink:href="#u"/><use transform="matrix(0.04938271604938272,0,0,0.04938271604938272,226.7654320987655,0)" xlink:href="#C"/><use transform="matrix(0.04938271604938272,0,0,0.04938271604938272,236.64197530864203,0)" xlink:href="#K"/></g><g id="r"><use transform="matrix(0.04938271604938272,0,0,0.04938271604938272,0,0)" xlink:href="#O"/><use transform="matrix(0.04938271604938272,0,0,0.04938271604938272,9.876543209876544,0)" xlink:href="#U"/><use transform="matrix(0.04938271604938272,0,0,0.04938271604938272,20.69135802469136,0)" xlink:href="#C"/><use transform="matrix(0.04938271604938272,0,0,0.04938271604938272,30.567901234567906,0)" xlink:href="#O"/><use transform="matrix(0.04938271604938272,0,0,0.04938271604938272,40.44444444444445,0)" xlink:href="#v"/><use transform="matrix(0.04938271604938272,0,0,0.04938271604938272,50.320987654320994,0)" xlink:href="#E"/><use transform="matrix(0.04938271604938272,0,0,0.04938271604938272,60.19753086419754,0)" xlink:href="#D"/><use transform="matrix(0.04938271604938272,0,0,0.04938271604938272,71.01234567901236,0)" xlink:href="#Q"/><use transform="matrix(0.04938271604938272,0,0,0.04938271604938272,81.82716049382717,0)" xlink:href="#aa"/><use transform="matrix(0.04938271604938272,0,0,0.04938271604938272,97.62962962962963,0)" xlink:href="#J"/><use transform="matrix(0.04938271604938272,0,0,0.04938271604938272,103.50617283950618,0)" xlink:href="#K"/></g></defs></g></svg>