<svg xmlns="http://www.w3.org/2000/svg" xmlns:xlink="http://www.w3.org/1999/xlink" xmlns:lucid="lucid" width="921" height="818"><g transform="translate(1461 1026)" lucid:page-tab-id="0_0"><path d="M-1500-1000h1000V0h-1000z" fill="#fff"/><path d="M-1400-560h100v60h-100z" stroke="#282c33" fill="#fff"/><use xlink:href="#a" transform="matrix(1,0,0,1,-1388,-548) translate(19.48148148148148 22.27777777777778)"/><path d="M-1300-560h100v60h-100z" stroke="#282c33" fill="#fff"/><use xlink:href="#b" transform="matrix(1,0,0,1,-1288,-548) translate(19.48148148148148 22.27777777777778)"/><path d="M-1200-560h100v60h-100z" stroke="#282c33" fill="#fff"/><use xlink:href="#c" transform="matrix(1,0,0,1,-1188,-548) translate(19.48148148148148 22.27777777777778)"/><path d="M-1100-560h100v60h-100z" stroke="#282c33" fill="#fff"/><use xlink:href="#d" transform="matrix(1,0,0,1,-1088,-548) translate(19.48148148148148 22.27777777777778)"/><path d="M-1000-560h100v60h-100z" stroke="#282c33" fill="#fff"/><use xlink:href="#e" transform="matrix(1,0,0,1,-988,-548) translate(19.48148148148148 22.27777777777778)"/><path d="M-800-560h100v60h-100z" stroke="#282c33" fill="#fff"/><use xlink:href="#f" transform="matrix(1,0,0,1,-788,-548) translate(19.48148148148148 22.27777777777778)"/><path d="M-900-560h100v60h-100z" stroke="#282c33" fill="#fff"/><use xlink:href="#g" transform="matrix(1,0,0,1,-888,-548) translate(19.48148148148148 22.27777777777778)"/><path d="M-700-560h100v60h-100z" stroke="#282c33" fill="#fff"/><use xlink:href="#h" transform="matrix(1,0,0,1,-688,-548) translate(19.48148148148148 22.27777777777778)"/><path d="M-1300-779v158.1" stroke="#3a414a" fill="none"/><path d="M-1299.53-779h-.94v-.5h.94z" stroke="#3a414a" stroke-width=".05" fill="#3a414a"/><path d="M-1290-638.32l-10 17.32-10-17.32M-1100-779.5v158.6M-1100-779.5v-.5M-1090-638.32l-10 17.32-10-17.32M-900-779.5v158.6M-900-779.5v-.5M-890-638.32L-900-621l-10-17.32M-700-779.5v158.6M-700-779.5v-.5M-690-638.32L-700-621l-10-17.32M-1000-959v157.6" stroke="#3a414a" fill="none"/><path d="M-1000.02-959.5l.5-.02v.53h-.96v-.56z" stroke="#3a414a" stroke-width=".05" fill="#3a414a"/><path d="M-990-818.82l-10 17.32-10-17.32" stroke="#3a414a" fill="none"/><path d="M-1360-794a6 6 0 0 1 6-6h688a6 6 0 0 1 6 6v8a6 6 0 0 1-6 6h-688a6 6 0 0 1-6-6z" stroke="#282c33"/><path d="M-1200-274a6 6 0 0 1 6-6h348a6 6 0 0 1 6 6v48a6 6 0 0 1-6 6h-348a6 6 0 0 1-6-6z" fill="none"/><use xlink:href="#i" transform="matrix(1,0,0,1,-1200,-280) translate(8.765432098765444 34.44444444444444)"/><use xlink:href="#j" transform="matrix(1,0,0,1,-1200,-280) translate(178.76543209876542 34.44444444444444)"/><use xlink:href="#k" transform="matrix(1,0,0,1,-1200,-280) translate(229.19753086419752 34.44444444444444)"/><use xlink:href="#l" transform="matrix(1,0,0,1,-1200,-280) translate(241.5432098765432 34.44444444444444)"/><use xlink:href="#m" transform="matrix(1,0,0,1,-1200,-280) translate(321.66666666666663 34.44444444444444)"/><path d="M-1379.5-580h158.6M-1379.5-580h-.5M-1238.32-590l17.32 10-17.32 10M-1179.5-580h158.6M-1179.5-580h-.5M-1038.32-590l17.32 10-17.32 10M-979.5-580h158.6M-979.5-580h-.5M-838.32-590l17.32 10-17.32 10M-779.5-580h158.6M-779.5-580h-.5M-638.32-590l17.32 10-17.32 10" stroke="#3a414a" fill="none"/><path d="M-1440-614a6 6 0 0 1 6-6h228a6 6 0 0 1 6 6v48a6 6 0 0 1-6 6h-228a6 6 0 0 1-6-6z" fill="none"/><use xlink:href="#n" transform="matrix(1,0,0,1,-1440,-620) translate(49.72222222222223 34.44444444444444)"/><use xlink:href="#o" transform="matrix(1,0,0,1,-1440,-620) translate(60.77160493827161 34.44444444444444)"/><use xlink:href="#p" transform="matrix(1,0,0,1,-1440,-620) translate(79.90740740740742 34.44444444444444)"/><use xlink:href="#q" transform="matrix(1,0,0,1,-1440,-620) translate(104.59876543209877 34.44444444444444)"/><use xlink:href="#r" transform="matrix(1,0,0,1,-1440,-620) translate(147.74691358024694 34.44444444444444)"/><use xlink:href="#s" transform="matrix(1,0,0,1,-1440,-620) translate(158.7962962962963 34.44444444444444)"/><use xlink:href="#t" transform="matrix(1,0,0,1,-1440,-620) translate(177.9320987654321 34.44444444444444)"/><path d="M-1240-614a6 6 0 0 1 6-6h228a6 6 0 0 1 6 6v48a6 6 0 0 1-6 6h-228a6 6 0 0 1-6-6z" fill="none"/><use xlink:href="#n" transform="matrix(1,0,0,1,-1240,-620) translate(49.72222222222223 34.44444444444444)"/><use xlink:href="#o" transform="matrix(1,0,0,1,-1240,-620) translate(60.77160493827161 34.44444444444444)"/><use xlink:href="#u" transform="matrix(1,0,0,1,-1240,-620) translate(79.90740740740742 34.44444444444444)"/><use xlink:href="#q" transform="matrix(1,0,0,1,-1240,-620) translate(104.59876543209877 34.44444444444444)"/><use xlink:href="#r" transform="matrix(1,0,0,1,-1240,-620) translate(147.74691358024694 34.44444444444444)"/><use xlink:href="#s" transform="matrix(1,0,0,1,-1240,-620) translate(158.7962962962963 34.44444444444444)"/><use xlink:href="#v" transform="matrix(1,0,0,1,-1240,-620) translate(177.9320987654321 34.44444444444444)"/><path d="M-1040-614a6 6 0 0 1 6-6h228a6 6 0 0 1 6 6v48a6 6 0 0 1-6 6h-228a6 6 0 0 1-6-6z" fill="none"/><use xlink:href="#n" transform="matrix(1,0,0,1,-1040,-620) translate(49.72222222222223 34.44444444444444)"/><use xlink:href="#o" transform="matrix(1,0,0,1,-1040,-620) translate(60.77160493827161 34.44444444444444)"/><use xlink:href="#w" transform="matrix(1,0,0,1,-1040,-620) translate(79.90740740740742 34.44444444444444)"/><use xlink:href="#q" transform="matrix(1,0,0,1,-1040,-620) translate(104.59876543209877 34.44444444444444)"/><use xlink:href="#r" transform="matrix(1,0,0,1,-1040,-620) translate(147.74691358024694 34.44444444444444)"/><use xlink:href="#s" transform="matrix(1,0,0,1,-1040,-620) translate(158.7962962962963 34.44444444444444)"/><use xlink:href="#x" transform="matrix(1,0,0,1,-1040,-620) translate(177.9320987654321 34.44444444444444)"/><path d="M-840-614a6 6 0 0 1 6-6h228a6 6 0 0 1 6 6v48a6 6 0 0 1-6 6h-228a6 6 0 0 1-6-6z" fill="none"/><use xlink:href="#n" transform="matrix(1,0,0,1,-840,-620) translate(49.72222222222223 34.44444444444444)"/><use xlink:href="#o" transform="matrix(1,0,0,1,-840,-620) translate(60.77160493827161 34.44444444444444)"/><use xlink:href="#y" transform="matrix(1,0,0,1,-840,-620) translate(79.90740740740742 34.44444444444444)"/><use xlink:href="#q" transform="matrix(1,0,0,1,-840,-620) translate(104.59876543209877 34.44444444444444)"/><use xlink:href="#r" transform="matrix(1,0,0,1,-840,-620) translate(147.74691358024694 34.44444444444444)"/><use xlink:href="#s" transform="matrix(1,0,0,1,-840,-620) translate(158.7962962962963 34.44444444444444)"/><use xlink:href="#z" transform="matrix(1,0,0,1,-840,-620) translate(177.9320987654321 34.44444444444444)"/><path d="M-980-980c0 11.05-8.95 20-20 20s-20-8.95-20-20 8.95-20 20-20 20 8.95 20 20z" stroke="#282c33"/><path d="M-1349.56-498.5l.07 1.12.14 1.08.18 1.06.23 1.02.28 1 .32 1 .38.98.43.97.5.97.54.97.62.96.7.98.76.98.87 1 .96 1 1.1 1 1.2 1.04 1.37 1.04 1.54 1.05 1.74 1.08 1.95 1.07 2.18 1.07 2.5 1.06 2.78 1.02 3.12.98 3.48.9 3.83.8 4.03.6v.97h-.02l-4.18-.65-3.87-.8-3.53-.9-3.17-1-2.83-1.04-2.53-1.07-2.25-1.1-2-1.1-1.76-1.1-1.58-1.07-1.4-1.07-1.25-1.06-1.12-1.05-1-1.03-.9-1.03-.8-1.02-.72-1-.64-1.02-.6-1-.5-1.02-.45-1-.4-1.04-.33-1.04-.3-1.05-.23-1.06-.2-1.1-.13-1.13-.08-1.15-.02-.13.95-.02zm100.02-.5l-.02.7-.08 1.16-.14 1.13-.2 1.08-.24 1.07-.3 1.05-.35 1.04-.4 1.02-.46 1.02-.52 1-.58 1-.65 1.02-.73 1-.83 1.03-.57.65h-1.3l.27-.27.88-.98.78-.98.7-.98.63-.96.56-.97.5-.97.44-.97.38-1 .33-.98.3-1 .22-1.03.18-1.05.13-1.08.1-1.12v-.66z" stroke="#3a414a" stroke-width=".05" fill="#3a414a"/><path d="M-1249.54-498.97l-.95-.03.03-.5h.94z" fill="#3a414a"/><path stroke="#3a414a" stroke-width=".05" fill="#3a414a"/><path d="M-1339.26-481.65l-.8.5-9.96-16.4-9.22 16.8-.84-.45 10.02-18.25z" stroke="#3a414a" stroke-width=".05" fill="#3a414a"/><use xlink:href="#A" transform="matrix(1,0,0,1,-1311.7688325293857,-484.02487114825124) translate(0 14.222222222222223)"/><use xlink:href="#B" transform="matrix(1,0,0,1,-1311.7688325293857,-484.02487114825124) translate(9.876543209876544 14.222222222222223)"/><use xlink:href="#C" transform="matrix(1,0,0,1,-1311.7688325293857,-484.02487114825124) translate(25.18518518518519 14.222222222222223)"/><use xlink:href="#D" transform="matrix(1,0,0,1,-1311.7688325293857,-484.02487114825124) translate(44.93827160493828 14.222222222222223)"/><use xlink:href="#E" transform="matrix(1,0,0,1,-1311.7688325293857,-484.02487114825124) translate(54.814814814814824 14.222222222222223)"/><path d="M-1349.48-497.54l.12 1.9.2 1.84.26 1.8.33 1.77.4 1.73.48 1.7.56 1.7.62 1.66.7 1.65.77 1.65.85 1.63.95 1.64 1.04 1.64 1.13 1.64 1.25 1.65 1.38 1.66 1.5 1.7 1.66 1.68 1.83 1.72 2 1.73 2.2 1.75 2.45 1.76 2.68 1.8 2.98 1.8 3.28 1.8 3.64 1.8 4.02 1.8 4.44 1.74 4.9 1.7 5.36 1.63 5.87 1.5 6.35 1.36 6.82 1.15 7.23.92 7.55.64 7.76.32h7.83l7.76-.32.77-.06v.95l-.7.06-7.8.33h-7.87l-7.8-.32-7.6-.63-7.26-.92-6.86-1.16-6.4-1.36-5.9-1.52-5.4-1.63-4.93-1.73-4.47-1.77-4.06-1.8-3.67-1.82-3.32-1.83-3-1.82-2.73-1.8-2.46-1.8-2.25-1.77-2.04-1.76-1.84-1.74-1.7-1.72-1.52-1.7-1.4-1.7-1.28-1.68-1.17-1.68-1.07-1.67-.96-1.66-.88-1.67-.8-1.68-.7-1.7-.64-1.7-.56-1.72-.48-1.74-.42-1.77-.34-1.8-.27-1.85-.2-1.88-.13-1.94-.03-1.08.95-.02zm199.94-1.45l-.03 1.5-.12 1.94-.2 1.9-.26 1.83-.34 1.8-.42 1.77-.48 1.75-.56 1.7-.64 1.7-.7 1.7-.8 1.67-.87 1.68-.97 1.67-1.06 1.67-1.16 1.66-1.28 1.7-1.4 1.68-1.54 1.7-1.68 1.73-1.86 1.74-2.03 1.76-2.24 1.78-2.46 1.8-2.65 1.75h-1.84l1.25-.77 2.7-1.78 2.43-1.77 2.2-1.75 2.02-1.73 1.82-1.7 1.66-1.7 1.5-1.68 1.4-1.66 1.24-1.66 1.14-1.64 1.05-1.64.95-1.63.85-1.65.78-1.64.7-1.64.6-1.67.55-1.7.48-1.7.4-1.73.34-1.76.27-1.8.2-1.84.1-1.9.05-1.47z" stroke="#3a414a" stroke-width=".05" fill="#3a414a"/><path d="M-1149.54-498.98h-.95l.03-.52h.94z" fill="#3a414a"/><path stroke="#3a414a" stroke-width=".05" fill="#3a414a"/><path d="M-1339.2-481.64l-.83.5-9.93-16.4-9.24 16.8-.83-.46 10.03-18.25z" stroke="#3a414a" stroke-width=".05" fill="#3a414a"/><g><use xlink:href="#A" transform="matrix(1,0,0,1,-1237.5685326552434,-457.4110763125725) translate(0 14.222222222222223)"/><use xlink:href="#B" transform="matrix(1,0,0,1,-1237.5685326552434,-457.4110763125725) translate(9.876543209876544 14.222222222222223)"/><use xlink:href="#C" transform="matrix(1,0,0,1,-1237.5685326552434,-457.4110763125725) translate(25.18518518518519 14.222222222222223)"/><use xlink:href="#D" transform="matrix(1,0,0,1,-1237.5685326552434,-457.4110763125725) translate(44.93827160493828 14.222222222222223)"/><use xlink:href="#F" transform="matrix(1,0,0,1,-1237.5685326552434,-457.4110763125725) translate(54.814814814814824 14.222222222222223)"/></g><path d="M-1349.52-496.56l.18 2.86.3 2.8.4 2.7.5 2.66.6 2.6.72 2.57.83 2.54.94 2.5 1.04 2.5 1.17 2.46 1.3 2.47 1.4 2.46 1.57 2.47 1.72 2.47 1.9 2.48 2.06 2.5 2.27 2.53 2.5 2.56 2.74 2.57 3.02 2.6 3.33 2.63 3.66 2.66 4.05 2.7 4.46 2.7 4.95 2.7 5.47 2.72 6.04 2.68 6.67 2.64 7.35 2.56 8.07 2.43 8.8 2.26 9.55 2.04 10.24 1.73 10.86 1.37 11.33.95 11.65.48h11.75l11.65-.5 11.34-.94 10.85-1.37 10.25-1.72 9.54-2.03 1.94-.5h3.83l-5.55 1.42-9.6 2.04-10.27 1.74-10.88 1.37-11.38.94-11.7.5h-11.78l-11.7-.5-11.36-.95-10.9-1.4-10.28-1.73-9.58-2.03-8.85-2.27-8.12-2.45-7.38-2.57-6.7-2.65-6.1-2.7-5.5-2.73-4.96-2.74-4.5-2.72-4.08-2.7-3.7-2.68-3.34-2.66-3.05-2.62-2.77-2.6-2.52-2.58-2.3-2.55-2.1-2.53-1.9-2.5-1.75-2.52-1.6-2.5-1.43-2.5-1.3-2.5-1.18-2.5-1.06-2.53-.95-2.54-.83-2.57-.72-2.6-.62-2.64-.52-2.7-.4-2.75-.3-2.82-.17-2.9-.05-2.06.95-.02zm299.98-2.43l-.05 2.5-.17 2.9-.3 2.8-.4 2.77-.52 2.7-.6 2.64-.74 2.62-.83 2.57-.95 2.53-1.06 2.52-1.18 2.5-1.3 2.5-1.45 2.5-1.6 2.5-1.74 2.5-1.9 2.53-2.1 2.53-2.3 2.57-2.53 2.57-2.77 2.6-3.05 2.63-3.34 2.66-3.7 2.68-1.17.8h-1.72l2.35-1.57 3.66-2.66 3.3-2.63 3.03-2.6 2.74-2.58 2.5-2.55 2.27-2.5 2.07-2.5 1.9-2.5 1.7-2.47 1.58-2.46 1.42-2.47 1.3-2.46 1.15-2.47 1.05-2.5.93-2.5.83-2.53.7-2.57.62-2.6.5-2.66.4-2.7.3-2.8.18-2.85.06-2.46z" stroke="#3a414a" stroke-width=".05" fill="#3a414a"/><path d="M-1049.54-498.97l-.95-.02.03-.5h.94z" fill="#3a414a"/><path stroke="#3a414a" stroke-width=".05" fill="#3a414a"/><path d="M-1339.27-481.64l-.82.5-9.92-16.4-9.24 16.8-.83-.46 10.04-18.25z" stroke="#3a414a" stroke-width=".05" fill="#3a414a"/><g><use xlink:href="#A" transform="matrix(1,0,0,1,-1143.1301754015615,-438.41112302347926) translate(0 14.222222222222223)"/><use xlink:href="#B" transform="matrix(1,0,0,1,-1143.1301754015615,-438.41112302347926) translate(9.876543209876544 14.222222222222223)"/><use xlink:href="#C" transform="matrix(1,0,0,1,-1143.1301754015615,-438.41112302347926) translate(25.18518518518519 14.222222222222223)"/><use xlink:href="#D" transform="matrix(1,0,0,1,-1143.1301754015615,-438.41112302347926) translate(44.93827160493828 14.222222222222223)"/><use xlink:href="#G" transform="matrix(1,0,0,1,-1143.1301754015615,-438.41112302347926) translate(54.814814814814824 14.222222222222223)"/></g><path d="M-1349.44-495.57l.24 3.82.4 3.72.52 3.62.68 3.54.8 3.5.97 3.4 1.1 3.4 1.25 3.34 1.4 3.33 1.55 3.3 1.72 3.3 1.88 3.3 2.1 3.28 2.3 3.3 2.5 3.32 2.77 3.34 3.04 3.37 3.32 3.4 3.66 3.44 4.02 3.48 4.43 3.5 4.9 3.56 5.4 3.58 5.95 3.6 6.6 3.63 7.27 3.6 8.06 3.6 8.9 3.5 9.82 3.42 10.76 3.25 11.75 3 12.73 2.72 13.66 2.3 14.47 1.82 15.1 1.27 15.54.64h15.68l15.53-.65 15.12-1.27 14.48-1.83 13.66-2.3 12.74-2.7 11.76-3.02 10.76-3.25H-1045.23l-2.63.9-10.8 3.26-11.8 3.02-12.76 2.7-13.7 2.32-14.53 1.83-15.16 1.27-15.56.65h-15.72l-15.57-.66-15.16-1.27-14.52-1.83-13.7-2.32-12.77-2.7-11.78-3.03-10.8-3.27-9.84-3.43-8.94-3.53-8.1-3.6-7.3-3.64-6.64-3.64-6-3.64-5.42-3.6-4.92-3.57-4.46-3.55-4.06-3.5-3.7-3.46-3.35-3.44-3.07-3.4-2.8-3.37-2.53-3.36-2.32-3.34-2.1-3.32-1.93-3.32-1.73-3.33-1.58-3.34-1.4-3.37-1.27-3.38-1.1-3.42-.97-3.47-.83-3.52-.68-3.6-.56-3.66-.4-3.75-.23-3.86-.06-3.05.95-.02zm399.9-3.42l-.07 3.48-.25 3.86-.4 3.75-.54 3.66-.67 3.6-.83 3.5-.97 3.48-1.1 3.42-1.27 3.38-1.4 3.36-1.58 3.34-1.74 3.33-1.92 3.32-2.1 3.3-2.33 3.35-2.55 3.35-2.8 3.37-3.05 3.4-3.36 3.43-3.7 3.46-4.05 3.5-4.47 3.53-4.92 3.57-4.24 2.82h-1.72l.03-.03 5.4-3.58 4.88-3.56 4.44-3.5 4-3.5 3.67-3.42 3.34-3.4 3.04-3.37 2.76-3.34 2.52-3.3 2.3-3.3 2.1-3.3 1.9-3.3 1.7-3.28 1.56-3.3 1.4-3.33 1.25-3.36 1.1-3.38.95-3.43.82-3.48.68-3.55.53-3.63.4-3.7.24-3.83.07-3.44z" stroke="#3a414a" stroke-width=".05" fill="#3a414a"/><path d="M-949.54-498.97l-.95-.02.02-.5h.96z" fill="#3a414a"/><path stroke="#3a414a" stroke-width=".05" fill="#3a414a"/><path d="M-1339.2-481.64l-.83.5-9.93-16.4-9.24 16.8-.83-.46 10.03-18.25z" stroke="#3a414a" stroke-width=".05" fill="#3a414a"/><g><use xlink:href="#A" transform="matrix(1,0,0,1,-1057.5124449294174,-416.41223717696784) translate(0 14.222222222222223)"/><use xlink:href="#B" transform="matrix(1,0,0,1,-1057.5124449294174,-416.41223717696784) translate(9.876543209876544 14.222222222222223)"/><use xlink:href="#C" transform="matrix(1,0,0,1,-1057.5124449294174,-416.41223717696784) translate(25.18518518518519 14.222222222222223)"/><use xlink:href="#D" transform="matrix(1,0,0,1,-1057.5124449294174,-416.41223717696784) translate(44.93827160493828 14.222222222222223)"/><use xlink:href="#H" transform="matrix(1,0,0,1,-1057.5124449294174,-416.41223717696784) translate(54.814814814814824 14.222222222222223)"/></g><path d="M-1349.48-494.58l.3 4.78.5 4.65.66 4.54.84 4.43 1.03 4.36 1.2 4.28 1.37 4.23 1.56 4.2 1.74 4.16 1.95 4.13 2.15 4.1 2.38 4.13 2.6 4.12 2.88 4.13 3.16 4.15 3.46 4.18 3.8 4.23 4.16 4.25 4.58 4.3 5.03 4.34 5.55 4.4 6.1 4.44 6.76 4.48 7.45 4.5 8.25 4.54 9.1 4.52 10.1 4.5 11.12 4.4 12.26 4.26 13.46 4.06 14.7 3.77 15.9 3.37 17.1 2.88 18.1 2.3 18.9 1.58 19.43.8h19.6l19.42-.8 18.9-1.6 18.1-2.27 17.1-2.88 15.92-3.38 14.68-3.77 13.47-4.06 12.26-4.27 7.54-2.98h2.6l-9.8 3.87-12.3 4.27-13.5 4.07-14.74 3.78-15.96 3.4-17.12 2.88-18.14 2.3-18.95 1.58-19.46.8h-19.64l-19.47-.8-18.94-1.6-18.14-2.3-17.12-2.88-15.96-3.4-14.73-3.77-13.5-4.07-12.3-4.28-11.17-4.42-10.1-4.5-9.16-4.54-8.28-4.55-7.5-4.53-6.77-4.5-6.15-4.47-5.58-4.4-5.07-4.38-4.6-4.34-4.2-4.28-3.82-4.25-3.5-4.2-3.16-4.2-2.9-4.16-2.63-4.15-2.4-4.15-2.18-4.15-1.96-4.17-1.77-4.2-1.58-4.22-1.4-4.28-1.2-4.32-1.03-4.4-.86-4.48-.68-4.58-.5-4.7-.3-4.8-.08-4.05.95-.02zm499.94-4.4l-.1 4.45-.3 4.82-.48 4.68-.68 4.58-.86 4.48-1.03 4.4-1.2 4.32-1.38 4.28-1.58 4.22-1.76 4.2-1.96 4.17-2.17 4.15-2.4 4.15-2.64 4.15-2.88 4.17-3.18 4.18-3.5 4.2-3.8 4.26-4.2 4.27-4.6 4.32-5.08 4.37-5.58 4.42-6.15 4.45-2.77 1.84h-1.7l3.93-2.63 6.1-4.44 5.55-4.4 5.04-4.34 4.57-4.3 4.17-4.26 3.8-4.22 3.46-4.18 3.15-4.15 2.87-4.14 2.62-4.12 2.37-4.12 2.17-4.12 1.94-4.13 1.76-4.16 1.56-4.18 1.38-4.23 1.2-4.3 1.02-4.36.84-4.44.67-4.54.5-4.65.3-4.77.1-4.43z" stroke="#3a414a" stroke-width=".05" fill="#3a414a"/><path d="M-849.54-498.97l-.95-.02.02-.5h.96z" fill="#3a414a"/><path stroke="#3a414a" stroke-width=".05" fill="#3a414a"/><path d="M-1339.27-481.64l-.82.5-9.92-16.4-9.24 16.8-.83-.46 10.04-18.25z" stroke="#3a414a" stroke-width=".05" fill="#3a414a"/><g><use xlink:href="#A" transform="matrix(1,0,0,1,-966.1728551771191,-397.41072965365095) translate(0 14.222222222222223)"/><use xlink:href="#B" transform="matrix(1,0,0,1,-966.1728551771191,-397.41072965365095) translate(9.876543209876544 14.222222222222223)"/><use xlink:href="#C" transform="matrix(1,0,0,1,-966.1728551771191,-397.41072965365095) translate(25.18518518518519 14.222222222222223)"/><use xlink:href="#D" transform="matrix(1,0,0,1,-966.1728551771191,-397.41072965365095) translate(44.93827160493828 14.222222222222223)"/><use xlink:href="#I" transform="matrix(1,0,0,1,-966.1728551771191,-397.41072965365095) translate(54.814814814814824 14.222222222222223)"/></g><path d="M-1349.4-493.6l.36 5.75.58 5.58.8 5.45 1.03 5.33 1.22 5.25 1.43 5.15 1.65 5.08 1.87 5.03 2.1 5 2.34 4.97 2.57 4.94 2.86 4.95 3.13 4.95 3.45 4.96 3.8 5 4.15 5 4.56 5.06 5 5.1 5.5 5.17 6.05 5.2 6.66 5.28 7.35 5.33 8.1 5.4 8.94 5.4 9.9 5.44 10.93 5.43 12.1 5.38 13.35 5.3 14.72 5.1 16.15 4.88 17.64 4.53 19.1 4.06 20.5 3.46 21.7 2.74 22.7 1.9 23.3.98h23.53l23.3-.97 22.7-1.9 21.73-2.74 20.5-3.48 19.1-4.05 17.65-4.52 16.16-4.88 14.72-5.12 13.36-5.28 9.98-4.44h2.34l-11.95 5.3-13.4 5.3-14.74 5.15-16.2 4.88-17.67 4.53-19.16 4.06-20.54 3.47-21.77 2.74-22.73 1.9-23.35.98h-23.56l-23.36-.98-22.73-1.9-21.75-2.75-20.54-3.47-19.13-4.07-17.67-4.53-16.2-4.88-14.75-5.14-13.4-5.3-12.13-5.4-10.97-5.44-9.93-5.47-8.98-5.43-8.13-5.4-7.37-5.36-6.68-5.3-6.08-5.24-5.52-5.2-5.03-5.13-4.6-5.08-4.17-5.06-3.8-5.02-3.48-5-3.16-4.97-2.86-4.98-2.6-4.98-2.36-5-2.1-5.04-1.9-5.06-1.66-5.13-1.45-5.2-1.23-5.26-1.03-5.36-.8-5.5-.6-5.6-.35-5.8-.1-5.02.94-.02zm599.86-5.38l-.1 5.44-.37 5.78-.6 5.62-.8 5.5-1.04 5.36-1.23 5.27-1.46 5.2-1.66 5.1-1.88 5.08-2.1 5.02-2.36 5-2.6 4.98-2.88 4.98-3.16 4.98-3.47 5-3.8 5-4.2 5.06-4.58 5.1-5.03 5.12-5.52 5.2-6.08 5.23-6.7 5.3-7.36 5.36-.74.5h-1.72l1.9-1.27 7.35-5.33 6.66-5.28 6.05-5.2 5.5-5.18 5-5.1 4.56-5.06 4.15-5.02 3.78-5 3.45-4.95 3.14-4.94 2.85-4.94 2.6-4.94 2.32-4.96 2.1-5 1.87-5.02 1.67-5.1 1.43-5.14 1.23-5.24 1.02-5.33.8-5.46.6-5.58.35-5.74.12-5.42z" stroke="#3a414a" stroke-width=".05" fill="#3a414a"/><path d="M-749.54-498.97l-.95-.02.02-.5h.96z" fill="#3a414a"/><path stroke="#3a414a" stroke-width=".05" fill="#3a414a"/><path d="M-1339.2-481.64l-.83.5-9.93-16.4-9.24 16.8-.83-.46 10.03-18.25z" stroke="#3a414a" stroke-width=".05" fill="#3a414a"/><g><use xlink:href="#A" transform="matrix(1,0,0,1,-874.7400007832982,-378.80340086844194) translate(0 14.222222222222223)"/><use xlink:href="#B" transform="matrix(1,0,0,1,-874.7400007832982,-378.80340086844194) translate(9.876543209876544 14.222222222222223)"/><use xlink:href="#C" transform="matrix(1,0,0,1,-874.7400007832982,-378.80340086844194) translate(25.18518518518519 14.222222222222223)"/><use xlink:href="#D" transform="matrix(1,0,0,1,-874.7400007832982,-378.80340086844194) translate(44.93827160493828 14.222222222222223)"/><use xlink:href="#J" transform="matrix(1,0,0,1,-874.7400007832982,-378.80340086844194) translate(54.814814814814824 14.222222222222223)"/></g><path d="M-1350.34-492.6l.42 6.7.7 6.54.93 6.37 1.2 6.24 1.43 6.12 1.68 6.02 1.94 5.95 2.2 5.88 2.44 5.84 2.73 5.8 3.03 5.78 3.34 5.78 3.67 5.78 4.03 5.8 4.42 5.82 4.85 5.87 5.32 5.9 5.85 5.98 6.42 6.03 7.07 6.1 7.8 6.16 8.56 6.23 9.47 6.3 10.45 6.32 11.57 6.34 12.78 6.34 14.13 6.3 15.6 6.17 17.2 5.98 18.88 5.7 20.6 5.28 22.33 4.75 23.95 4.05 25.38 3.2 26.5 2.23 27.25 1.14h27.48l27.24-1.14 26.5-2.22 25.4-3.2 23.95-4.04 22.32-4.74 20.6-5.28 18.9-5.7 17.2-5.98 15.6-6.17 14.14-6.3 5.84-2.9h2.14l-7.58 3.76-14.17 6.3-15.64 6.2-17.24 6-18.9 5.7-20.66 5.3-22.37 4.74-24 4.05-25.42 3.2-26.55 2.23-27.28 1.14h-27.52l-27.28-1.14-26.55-2.23-25.42-3.2-24-4.06-22.35-4.76-20.64-5.3-18.92-5.7-17.24-6-15.64-6.2-14.17-6.3-12.83-6.36-11.6-6.37-10.48-6.34-9.5-6.3-8.6-6.26-7.82-6.2-7.1-6.1-6.45-6.07-5.87-6-5.35-5.94-4.88-5.9-4.45-5.87-4.05-5.83-3.7-5.8-3.35-5.82-3.04-5.82-2.75-5.83-2.45-5.87-2.2-5.92-1.95-5.98-1.7-6.06-1.43-6.16-1.2-6.27-.94-6.4-.7-6.58-.42-6.75-.1-6.03.94-.02zm700.8-6.38l-.13 6.44-.42 6.75-.68 6.57-.95 6.4-1.2 6.28-1.44 6.16-1.7 6.07-1.94 5.98-2.2 5.92-2.48 5.87-2.74 5.84-3.05 5.8-3.35 5.82-3.7 5.82-4.05 5.83-4.44 5.86-4.9 5.9-5.35 5.95-5.88 6-6.45 6.05-7.1 6.13-7.8 6.2-8.62 6.24-.45.3h-1.72l1.63-1.08 8.58-6.24 7.78-6.17 7.06-6.1 6.43-6.03 5.86-5.97 5.33-5.92 4.84-5.86 4.42-5.83 4.04-5.8 3.67-5.8 3.33-5.76 3.02-5.8 2.74-5.8 2.45-5.82 2.2-5.88 1.93-5.94 1.68-6.03 1.44-6.1 1.2-6.25.93-6.37.7-6.52.4-6.7.14-6.43z" stroke="#3a414a" stroke-width=".05" fill="#3a414a"/><path d="M-649.54-498.97l-.95-.02.02-.5h.96z" fill="#3a414a"/><path stroke="#3a414a" stroke-width=".05" fill="#3a414a"/><path d="M-1340.17-481.64l-.8.5-9.95-16.4-9.24 16.8-.83-.46 10.04-18.25z" stroke="#3a414a" stroke-width=".05" fill="#3a414a"/><g><use xlink:href="#A" transform="matrix(1,0,0,1,-785.7459367642872,-358.8331276285432) translate(0 14.222222222222223)"/><use xlink:href="#B" transform="matrix(1,0,0,1,-785.7459367642872,-358.8331276285432) translate(9.876543209876544 14.222222222222223)"/><use xlink:href="#C" transform="matrix(1,0,0,1,-785.7459367642872,-358.8331276285432) translate(25.18518518518519 14.222222222222223)"/><use xlink:href="#D" transform="matrix(1,0,0,1,-785.7459367642872,-358.8331276285432) translate(44.93827160493828 14.222222222222223)"/><use xlink:href="#K" transform="matrix(1,0,0,1,-785.7459367642872,-358.8331276285432) translate(54.814814814814824 14.222222222222223)"/></g><defs><path fill="#3a414a" d="M115-194c55 1 70 41 70 98S169 2 115 4C84 4 66-9 55-30l1 105H24l-1-265h31l2 30c10-21 28-34 59-34zm-8 174c40 0 45-34 45-75s-6-73-45-74c-42 0-51 32-51 76 0 43 10 73 51 73" id="L"/><path fill="#3a414a" d="M26 75v-336h71v23H56V52h41v23H26" id="M"/><path fill="#3a414a" d="M101-251c68 0 85 55 85 127S166 4 100 4C33 4 14-52 14-124c0-73 17-127 87-127zm-1 229c47 0 54-49 54-102s-4-102-53-102c-51 0-55 48-55 102 0 53 5 102 54 102" id="N"/><path fill="#3a414a" d="M3 75V52h41v-290H3v-23h71V75H3" id="O"/><g id="a"><use transform="matrix(0.06172839506172839,0,0,0.06172839506172839,0,0)" xlink:href="#L"/><use transform="matrix(0.06172839506172839,0,0,0.06172839506172839,12.345679012345679,0)" xlink:href="#M"/><use transform="matrix(0.06172839506172839,0,0,0.06172839506172839,18.51851851851852,0)" xlink:href="#N"/><use transform="matrix(0.06172839506172839,0,0,0.06172839506172839,30.864197530864196,0)" xlink:href="#O"/></g><path fill="#3a414a" d="M27 0v-27h64v-190l-56 39v-29l58-41h29v221h61V0H27" id="P"/><g id="b"><use transform="matrix(0.06172839506172839,0,0,0.06172839506172839,0,0)" xlink:href="#L"/><use transform="matrix(0.06172839506172839,0,0,0.06172839506172839,12.345679012345679,0)" xlink:href="#M"/><use transform="matrix(0.06172839506172839,0,0,0.06172839506172839,18.51851851851852,0)" xlink:href="#P"/><use transform="matrix(0.06172839506172839,0,0,0.06172839506172839,30.864197530864196,0)" xlink:href="#O"/></g><path fill="#3a414a" d="M101-251c82-7 93 87 43 132L82-64C71-53 59-42 53-27h129V0H18c2-99 128-94 128-182 0-28-16-43-45-43s-46 15-49 41l-32-3c6-41 34-60 81-64" id="Q"/><g id="c"><use transform="matrix(0.06172839506172839,0,0,0.06172839506172839,0,0)" xlink:href="#L"/><use transform="matrix(0.06172839506172839,0,0,0.06172839506172839,12.345679012345679,0)" xlink:href="#M"/><use transform="matrix(0.06172839506172839,0,0,0.06172839506172839,18.51851851851852,0)" xlink:href="#Q"/><use transform="matrix(0.06172839506172839,0,0,0.06172839506172839,30.864197530864196,0)" xlink:href="#O"/></g><path fill="#3a414a" d="M126-127c33 6 58 20 58 59 0 88-139 92-164 29-3-8-5-16-6-25l32-3c6 27 21 44 54 44 32 0 52-15 52-46 0-38-36-46-79-43v-28c39 1 72-4 72-42 0-27-17-43-46-43-28 0-47 15-49 41l-32-3c6-42 35-63 81-64 48-1 79 21 79 65 0 36-21 52-52 59" id="R"/><g id="d"><use transform="matrix(0.06172839506172839,0,0,0.06172839506172839,0,0)" xlink:href="#L"/><use transform="matrix(0.06172839506172839,0,0,0.06172839506172839,12.345679012345679,0)" xlink:href="#M"/><use transform="matrix(0.06172839506172839,0,0,0.06172839506172839,18.51851851851852,0)" xlink:href="#R"/><use transform="matrix(0.06172839506172839,0,0,0.06172839506172839,30.864197530864196,0)" xlink:href="#O"/></g><path fill="#3a414a" d="M155-56V0h-30v-56H8v-25l114-167h33v167h35v25h-35zm-30-156c-27 46-58 90-88 131h88v-131" id="S"/><g id="e"><use transform="matrix(0.06172839506172839,0,0,0.06172839506172839,0,0)" xlink:href="#L"/><use transform="matrix(0.06172839506172839,0,0,0.06172839506172839,12.345679012345679,0)" xlink:href="#M"/><use transform="matrix(0.06172839506172839,0,0,0.06172839506172839,18.51851851851852,0)" xlink:href="#S"/><use transform="matrix(0.06172839506172839,0,0,0.06172839506172839,30.864197530864196,0)" xlink:href="#O"/></g><path fill="#3a414a" d="M110-160c48 1 74 30 74 79 0 53-28 85-80 85-65 0-83-55-86-122-5-90 50-162 133-122 14 7 22 21 27 39l-31 6c-5-40-67-38-82-6-9 19-15 44-15 74 11-20 30-34 60-33zm-7 138c34 0 49-23 49-58s-16-56-50-56c-29 0-50 16-49 49 1 36 15 65 50 65" id="T"/><g id="f"><use transform="matrix(0.06172839506172839,0,0,0.06172839506172839,0,0)" xlink:href="#L"/><use transform="matrix(0.06172839506172839,0,0,0.06172839506172839,12.345679012345679,0)" xlink:href="#M"/><use transform="matrix(0.06172839506172839,0,0,0.06172839506172839,18.51851851851852,0)" xlink:href="#T"/><use transform="matrix(0.06172839506172839,0,0,0.06172839506172839,30.864197530864196,0)" xlink:href="#O"/></g><path fill="#3a414a" d="M54-142c48-35 137-8 131 61C196 18 31 33 14-55l32-4c7 23 22 37 52 37 35-1 51-22 54-58 4-55-73-65-99-34H22l8-134h141v27H59" id="U"/><g id="g"><use transform="matrix(0.06172839506172839,0,0,0.06172839506172839,0,0)" xlink:href="#L"/><use transform="matrix(0.06172839506172839,0,0,0.06172839506172839,12.345679012345679,0)" xlink:href="#M"/><use transform="matrix(0.06172839506172839,0,0,0.06172839506172839,18.51851851851852,0)" xlink:href="#U"/><use transform="matrix(0.06172839506172839,0,0,0.06172839506172839,30.864197530864196,0)" xlink:href="#O"/></g><path fill="#3a414a" d="M64 0c3-98 48-159 88-221H18v-27h164v26C143-157 98-101 97 0H64" id="V"/><g id="h"><use transform="matrix(0.06172839506172839,0,0,0.06172839506172839,0,0)" xlink:href="#L"/><use transform="matrix(0.06172839506172839,0,0,0.06172839506172839,12.345679012345679,0)" xlink:href="#M"/><use transform="matrix(0.06172839506172839,0,0,0.06172839506172839,18.51851851851852,0)" xlink:href="#V"/><use transform="matrix(0.06172839506172839,0,0,0.06172839506172839,30.864197530864196,0)" xlink:href="#O"/></g><path fill="#3a414a" d="M24-231v-30h32v30H24zM24 0v-190h32V0H24" id="W"/><path fill="#3a414a" d="M101-234c-31-9-42 10-38 44h38v23H63V0H32v-167H5v-23h27c-7-52 17-82 69-68v24" id="X"/><path fill="#3a414a" d="M87 75C49 33 22-17 22-94c0-76 28-126 65-167h31c-38 41-64 92-64 168S80 34 118 75H87" id="Y"/><path fill="#3a414a" d="M85-194c31 0 48 13 60 33l-1-100h32l1 261h-30c-2-10 0-23-3-31C134-8 116 4 85 4 32 4 16-35 15-94c0-66 23-100 70-100zm9 24c-40 0-46 34-46 75 0 40 6 74 45 74 42 0 51-32 51-76 0-42-9-74-50-73" id="Z"/><path fill="#3a414a" d="M100-194c62-1 85 37 85 99 1 63-27 99-86 99S16-35 15-95c0-66 28-99 85-99zM99-20c44 1 53-31 53-75 0-43-8-75-51-75s-53 32-53 75 10 74 51 75" id="aa"/><path fill="#3a414a" d="M210-169c-67 3-38 105-44 169h-31v-121c0-29-5-50-35-48C34-165 62-65 56 0H25l-1-190h30c1 10-1 24 2 32 10-44 99-50 107 0 11-21 27-35 58-36 85-2 47 119 55 194h-31v-121c0-29-5-49-35-48" id="ab"/><path fill="#3a414a" d="M117-194c89-4 53 116 60 194h-32v-121c0-31-8-49-39-48C34-167 62-67 57 0H25l-1-190h30c1 10-1 24 2 32 11-22 29-35 61-36" id="ac"/><path fill="#3a414a" d="M141-36C126-15 110 5 73 4 37 3 15-17 15-53c-1-64 63-63 125-63 3-35-9-54-41-54-24 1-41 7-42 31l-33-3c5-37 33-52 76-52 45 0 72 20 72 64v82c-1 20 7 32 28 27v20c-31 9-61-2-59-35zM48-53c0 20 12 33 32 33 41-3 63-29 60-74-43 2-92-5-92 41" id="ad"/><path fill="#3a414a" d="M59-47c-2 24 18 29 38 22v24C64 9 27 4 27-40v-127H5v-23h24l9-43h21v43h35v23H59v120" id="ae"/><path fill="#3a414a" d="M100-194c63 0 86 42 84 106H49c0 40 14 67 53 68 26 1 43-12 49-29l28 8c-11 28-37 45-77 45C44 4 14-33 15-96c1-61 26-98 85-98zm52 81c6-60-76-77-97-28-3 7-6 17-6 28h103" id="af"/><path fill="#3a414a" d="M135-143c-3-34-86-38-87 0 15 53 115 12 119 90S17 21 10-45l28-5c4 36 97 45 98 0-10-56-113-15-118-90-4-57 82-63 122-42 12 7 21 19 24 35" id="ag"/><path fill="#3a414a" d="M24-231v-30h32v30H24zM-9 49c24 4 33-6 33-30v-209h32V24c2 40-23 58-65 49V49" id="ah"/><path fill="#3a414a" d="M68-38c1 34 0 65-14 84H32c9-13 17-26 17-46H33v-38h35" id="ai"/><g id="i"><use transform="matrix(0.06172839506172839,0,0,0.06172839506172839,0,0)" xlink:href="#W"/><use transform="matrix(0.06172839506172839,0,0,0.06172839506172839,4.876543209876543,0)" xlink:href="#X"/><use transform="matrix(0.06172839506172839,0,0,0.06172839506172839,11.049382716049383,0)" xlink:href="#Y"/><use transform="matrix(0.06172839506172839,0,0,0.06172839506172839,18.395061728395063,0)" xlink:href="#Z"/><use transform="matrix(0.06172839506172839,0,0,0.06172839506172839,30.74074074074074,0)" xlink:href="#aa"/><use transform="matrix(0.06172839506172839,0,0,0.06172839506172839,43.08641975308642,0)" xlink:href="#ab"/><use transform="matrix(0.06172839506172839,0,0,0.06172839506172839,61.5432098765432,0)" xlink:href="#W"/><use transform="matrix(0.06172839506172839,0,0,0.06172839506172839,66.41975308641975,0)" xlink:href="#ac"/><use transform="matrix(0.06172839506172839,0,0,0.06172839506172839,78.76543209876543,0)" xlink:href="#ad"/><use transform="matrix(0.06172839506172839,0,0,0.06172839506172839,91.11111111111111,0)" xlink:href="#ae"/><use transform="matrix(0.06172839506172839,0,0,0.06172839506172839,97.28395061728395,0)" xlink:href="#af"/><use transform="matrix(0.06172839506172839,0,0,0.06172839506172839,109.62962962962963,0)" xlink:href="#ag"/><use transform="matrix(0.06172839506172839,0,0,0.06172839506172839,120.74074074074075,0)" xlink:href="#Y"/><use transform="matrix(0.06172839506172839,0,0,0.06172839506172839,128.08641975308643,0)" xlink:href="#L"/><use transform="matrix(0.06172839506172839,0,0,0.06172839506172839,140.4320987654321,0)" xlink:href="#M"/><use transform="matrix(0.06172839506172839,0,0,0.06172839506172839,146.60493827160494,0)" xlink:href="#ah"/><use transform="matrix(0.06172839506172839,0,0,0.06172839506172839,151.48148148148147,0)" xlink:href="#O"/><use transform="matrix(0.06172839506172839,0,0,0.06172839506172839,157.6543209876543,0)" xlink:href="#ai"/></g><path fill="#3a414a" d="M33-261c38 41 65 92 65 168S71 34 33 75H2C39 34 66-17 66-93S39-220 2-261h31" id="aj"/><g id="j"><use transform="matrix(0.06172839506172839,0,0,0.06172839506172839,0,0)" xlink:href="#L"/><use transform="matrix(0.06172839506172839,0,0,0.06172839506172839,12.345679012345679,0)" xlink:href="#M"/><use transform="matrix(0.06172839506172839,0,0,0.06172839506172839,18.51851851851852,0)" xlink:href="#W"/><use transform="matrix(0.06172839506172839,0,0,0.06172839506172839,23.395061728395063,0)" xlink:href="#O"/><use transform="matrix(0.06172839506172839,0,0,0.06172839506172839,29.567901234567902,0)" xlink:href="#aj"/><use transform="matrix(0.06172839506172839,0,0,0.06172839506172839,36.91358024691358,0)" xlink:href="#aj"/></g><path fill="#3a414a" d="M33-154v-36h34v36H33zM33 0v-36h34V0H33" id="ak"/><use transform="matrix(0.06172839506172839,0,0,0.06172839506172839,0,0)" xlink:href="#ak" id="k"/><path fill="#3a414a" d="M114-163C36-179 61-72 57 0H25l-1-190h30c1 12-1 29 2 39 6-27 23-49 58-41v29" id="al"/><path fill="#3a414a" d="M108 0H70L1-190h34L89-25l56-165h34" id="am"/><g id="l"><use transform="matrix(0.06172839506172839,0,0,0.06172839506172839,0,0)" xlink:href="#al"/><use transform="matrix(0.06172839506172839,0,0,0.06172839506172839,7.345679012345679,0)" xlink:href="#af"/><use transform="matrix(0.06172839506172839,0,0,0.06172839506172839,19.691358024691358,0)" xlink:href="#ab"/><use transform="matrix(0.06172839506172839,0,0,0.06172839506172839,38.148148148148145,0)" xlink:href="#aa"/><use transform="matrix(0.06172839506172839,0,0,0.06172839506172839,50.49382716049382,0)" xlink:href="#am"/><use transform="matrix(0.06172839506172839,0,0,0.06172839506172839,61.60493827160494,0)" xlink:href="#af"/></g><g id="m"><use transform="matrix(0.06172839506172839,0,0,0.06172839506172839,0,0)" xlink:href="#L"/><use transform="matrix(0.06172839506172839,0,0,0.06172839506172839,12.345679012345679,0)" xlink:href="#M"/><use transform="matrix(0.06172839506172839,0,0,0.06172839506172839,18.51851851851852,0)" xlink:href="#W"/><use transform="matrix(0.06172839506172839,0,0,0.06172839506172839,23.395061728395063,0)" xlink:href="#O"/></g><use transform="matrix(0.06172839506172839,0,0,0.06172839506172839,0,0)" xlink:href="#W" id="n"/><path fill="#3a414a" d="M18-150v-26h174v26H18zm0 90v-26h174v26H18" id="an"/><use transform="matrix(0.06172839506172839,0,0,0.06172839506172839,0,0)" xlink:href="#an" id="o"/><path fill="#3a414a" d="M68-36c1 33-1 63-14 82H32c9-13 17-26 17-46H33v-36h35zM33-154v-36h35v36H33" id="ao"/><g id="p"><use transform="matrix(0.06172839506172839,0,0,0.06172839506172839,0,0)" xlink:href="#N"/><use transform="matrix(0.06172839506172839,0,0,0.06172839506172839,12.345679012345679,0)" xlink:href="#ao"/></g><path fill="#3a414a" d="M118-107v75H92v-75H18v-26h74v-75h26v75h74v26h-74" id="ap"/><g id="q"><use transform="matrix(0.06172839506172839,0,0,0.06172839506172839,0,0)" xlink:href="#W"/><use transform="matrix(0.06172839506172839,0,0,0.06172839506172839,4.876543209876543,0)" xlink:href="#ap"/><use transform="matrix(0.06172839506172839,0,0,0.06172839506172839,17.839506172839506,0)" xlink:href="#ap"/><use transform="matrix(0.06172839506172839,0,0,0.06172839506172839,30.80246913580247,0)" xlink:href="#ao"/></g><use transform="matrix(0.06172839506172839,0,0,0.06172839506172839,0,0)" xlink:href="#W" id="r"/><path fill="#3a414a" d="M18-100v-36l175-74v27L42-118l151 64v27" id="aq"/><use transform="matrix(0.06172839506172839,0,0,0.06172839506172839,0,0)" xlink:href="#aq" id="s"/><use transform="matrix(0.06172839506172839,0,0,0.06172839506172839,0,0)" xlink:href="#Q" id="t"/><g id="u"><use transform="matrix(0.06172839506172839,0,0,0.06172839506172839,0,0)" xlink:href="#Q"/><use transform="matrix(0.06172839506172839,0,0,0.06172839506172839,12.345679012345679,0)" xlink:href="#ao"/></g><use transform="matrix(0.06172839506172839,0,0,0.06172839506172839,0,0)" xlink:href="#S" id="v"/><g id="w"><use transform="matrix(0.06172839506172839,0,0,0.06172839506172839,0,0)" xlink:href="#S"/><use transform="matrix(0.06172839506172839,0,0,0.06172839506172839,12.345679012345679,0)" xlink:href="#ao"/></g><use transform="matrix(0.06172839506172839,0,0,0.06172839506172839,0,0)" xlink:href="#T" id="x"/><g id="y"><use transform="matrix(0.06172839506172839,0,0,0.06172839506172839,0,0)" xlink:href="#T"/><use transform="matrix(0.06172839506172839,0,0,0.06172839506172839,12.345679012345679,0)" xlink:href="#ao"/></g><path fill="#3a414a" d="M134-131c28 9 52 24 51 62-1 50-34 73-85 73S17-19 16-69c0-36 21-54 49-61-75-25-45-126 34-121 46 3 78 18 79 63 0 33-17 51-44 57zm-34-11c31 1 46-15 46-44 0-28-17-43-47-42-29 0-46 13-45 42 1 28 16 44 46 44zm1 122c35 0 51-18 51-52 0-30-18-46-53-46-33 0-51 17-51 47 0 34 19 51 53 51" id="ar"/><use transform="matrix(0.06172839506172839,0,0,0.06172839506172839,0,0)" xlink:href="#ar" id="z"/><path fill="#333" d="M25-224v-37h50v37H25zM25 0v-190h50V0H25" id="as"/><use transform="matrix(0.04938271604938272,0,0,0.04938271604938272,0,0)" xlink:href="#as" id="A"/><path fill="#333" d="M15-148v-39h180v39H15zm0 97v-39h180v39H15" id="at"/><use transform="matrix(0.04938271604938272,0,0,0.04938271604938272,0,0)" xlink:href="#at" id="B"/><path fill="#333" d="M101-251c68 0 84 54 84 127C185-50 166 4 99 4S15-52 14-124c-1-75 17-127 87-127zm-1 216c37-5 36-46 36-89s4-89-36-89c-39 0-36 45-36 89 0 43-3 85 36 89" id="au"/><path fill="#333" d="M76-54c-1 42 2 86-19 110H24C36 42 46 24 48 0H25v-54h51" id="av"/><g id="C"><use transform="matrix(0.04938271604938272,0,0,0.04938271604938272,0,0)" xlink:href="#au"/><use transform="matrix(0.04938271604938272,0,0,0.04938271604938272,9.876543209876544,0)" xlink:href="#av"/></g><path fill="#333" d="M25-224v-37h50v37H25zM75 22c2 45-34 59-81 51V38c22 5 31-5 31-27v-201h50V22" id="aw"/><use transform="matrix(0.04938271604938272,0,0,0.04938271604938272,0,0)" xlink:href="#aw" id="D"/><path fill="#333" d="M23 0v-37h61v-169l-59 37v-38l62-41h46v211h57V0H23" id="ax"/><g id="E"><use transform="matrix(0.04938271604938272,0,0,0.04938271604938272,0,0)" xlink:href="#at"/><use transform="matrix(0.04938271604938272,0,0,0.04938271604938272,10.370370370370372,0)" xlink:href="#ax"/></g><path fill="#333" d="M182-182c0 78-84 86-111 141h115V0H12c-6-101 99-100 120-180 1-22-12-31-33-32-23 0-32 14-35 34l-49-3c5-45 32-70 84-70 51 0 83 22 83 69" id="ay"/><g id="F"><use transform="matrix(0.04938271604938272,0,0,0.04938271604938272,0,0)" xlink:href="#at"/><use transform="matrix(0.04938271604938272,0,0,0.04938271604938272,10.370370370370372,0)" xlink:href="#ay"/></g><path fill="#333" d="M128-127c34 4 56 21 59 58 7 91-148 94-172 28-4-9-6-17-7-26l51-5c1 24 16 35 40 36 23 0 39-12 38-36-1-31-31-36-65-34v-40c32 2 59-3 59-33 0-20-13-33-34-33s-33 13-35 32l-50-3c6-44 37-68 86-68 50 0 83 20 83 66 0 35-22 52-53 58" id="az"/><g id="G"><use transform="matrix(0.04938271604938272,0,0,0.04938271604938272,0,0)" xlink:href="#at"/><use transform="matrix(0.04938271604938272,0,0,0.04938271604938272,10.370370370370372,0)" xlink:href="#az"/></g><path fill="#333" d="M165-50V0h-47v-50H5v-38l105-160h55v161h33v37h-33zm-47-37l2-116L46-87h72" id="aA"/><g id="H"><use transform="matrix(0.04938271604938272,0,0,0.04938271604938272,0,0)" xlink:href="#at"/><use transform="matrix(0.04938271604938272,0,0,0.04938271604938272,10.370370370370372,0)" xlink:href="#aA"/></g><path fill="#333" d="M139-81c0-46-55-55-73-27H18l9-140h149v37H72l-4 63c44-38 133-4 122 66C201 21 21 35 11-62l49-4c5 18 15 30 39 30 26 0 40-18 40-45" id="aB"/><g id="I"><use transform="matrix(0.04938271604938272,0,0,0.04938271604938272,0,0)" xlink:href="#at"/><use transform="matrix(0.04938271604938272,0,0,0.04938271604938272,10.370370370370372,0)" xlink:href="#aB"/></g><path fill="#333" d="M115-159c48 0 72 30 72 78 0 54-30 85-83 85-64 0-91-50-91-122 0-98 58-163 141-120 15 8 21 24 27 44l-47 6c-5-31-48-31-61-4-7 14-11 33-11 60 9-17 28-27 53-27zM102-35c24 0 36-20 36-45s-11-43-37-43c-23 0-36 14-36 38 0 27 11 50 37 50" id="aC"/><g id="J"><use transform="matrix(0.04938271604938272,0,0,0.04938271604938272,0,0)" xlink:href="#at"/><use transform="matrix(0.04938271604938272,0,0,0.04938271604938272,10.370370370370372,0)" xlink:href="#aC"/></g><path fill="#333" d="M52 0c1-96 47-148 87-207H15v-41h169v40c-36 62-79 113-81 208H52" id="aD"/><g id="K"><use transform="matrix(0.04938271604938272,0,0,0.04938271604938272,0,0)" xlink:href="#at"/><use transform="matrix(0.04938271604938272,0,0,0.04938271604938272,10.370370370370372,0)" xlink:href="#aD"/></g></defs></g></svg>